<svg width="38" height="38" viewBox="0 0 38 38" fill="none" xmlns="http://www.w3.org/2000/svg">
<path d="M29.7581 31.8157C29.7581 33.0221 28.7722 34 27.5561 34L9.702 34C8.48587 34 7.5 33.0221 7.5 31.8157L7.50001 9.0875C7.50001 7.88116 8.48588 6.90323 9.70201 6.90323L27.5561 6.90323C28.7722 6.90323 29.7581 7.88116 29.7581 9.0875L29.7581 31.8157Z" fill="#DBECFF"/>
<path d="M24.9193 14.789C24.9193 15.4036 24.4637 15.9019 23.9018 15.9019L13.3562 15.9019C12.7942 15.9019 12.3387 15.4036 12.3387 14.789V14.789C12.3387 14.1743 12.7942 13.676 13.3562 13.676L23.9018 13.676C24.4637 13.676 24.9193 14.1743 24.9193 14.789V14.789Z" fill="#4F96FF"/>
<path d="M24.9193 20.5971C24.9193 21.2117 24.4637 21.71 23.9018 21.71L13.3562 21.71C12.7942 21.71 12.3387 21.2117 12.3387 20.5971V20.5971C12.3387 19.9824 12.7942 19.4842 13.3562 19.4842L23.9018 19.4842C24.4637 19.4842 24.9193 19.9824 24.9193 20.5971V20.5971Z" fill="#4F96FF"/>
<path d="M24.9193 26.4027C24.9193 27.0174 24.4637 27.5156 23.9018 27.5156L13.3562 27.5156C12.7942 27.5156 12.3387 27.0174 12.3387 26.4027V26.4027C12.3387 25.7881 12.7942 25.2898 13.3562 25.2898L23.9018 25.2898C24.4637 25.2898 24.9193 25.7881 24.9193 26.4027V26.4027Z" fill="#4F96FF"/>
<path d="M26.054 16.2723V11.9858H32.0133C32.023 13.2483 32.0426 15.873 32.0426 16.2723C32.0426 16.7714 31.5729 16.8301 31.3967 16.8301C31.2558 16.8301 30.9074 16.6148 30.7508 16.5072L29.0186 15.3621C28.6272 15.6264 27.7444 16.2253 27.3451 16.5072C26.9459 16.789 26.6899 16.8399 26.6118 16.8301C26.1421 16.7831 26.0442 16.4386 26.054 16.2723Z" fill="#B74949"/>
<path d="M33.6295 8.58003C33.6295 11.1095 31.579 13.1601 29.0495 13.1601C26.52 13.1601 24.4695 11.1095 24.4695 8.58003C24.4695 6.05055 26.52 4 29.0495 4C31.579 4 33.6295 6.05055 33.6295 8.58003Z" fill="#E05151"/>
<path d="M31.103 8.5502C31.103 9.66901 30.196 10.576 29.0772 10.576C27.9584 10.576 27.0514 9.66901 27.0514 8.5502C27.0514 7.43139 27.9584 6.52441 29.0772 6.52441C30.196 6.52441 31.103 7.43139 31.103 8.5502Z" fill="#FFCD50"/>
</svg>
