<svg width="38" height="38" viewBox="0 0 38 38" fill="none" xmlns="http://www.w3.org/2000/svg">
<rect x="4" y="25.769" width="12.2338" height="3.72687" fill="#FEAB4D"/>
<path d="M16.2314 25.769H30.4907V29.4959H16.2314V25.769Z" fill="#E84B5F"/>
<path d="M30.4907 25.769V29.4959V32.3721L36 27.673L30.4907 23.0144V25.769Z" fill="#E84B5F"/>
<path d="M26.6011 19.1251C26.6011 21.1761 25.9929 23.1811 24.8534 24.8865C23.7139 26.5919 22.0942 27.9211 20.1993 28.7061C18.3043 29.491 16.2192 29.6963 14.2075 29.2962C12.1959 28.8961 10.348 27.9084 8.89771 26.458C7.44739 25.0077 6.4597 23.1599 6.05956 21.1482C5.65941 19.1366 5.86478 17.0514 6.64969 15.1565C7.4346 13.2615 8.7638 11.6419 10.4692 10.5024C12.1746 9.36285 14.1796 8.75464 16.2307 8.75464L16.2307 12.596C14.9394 12.596 13.677 12.9789 12.6033 13.6963C11.5296 14.4138 10.6928 15.4335 10.1986 16.6265C9.70446 17.8195 9.57516 19.1323 9.82709 20.3988C10.079 21.6653 10.7008 22.8287 11.614 23.7418C12.5271 24.6549 13.6904 25.2767 14.9569 25.5287C16.2235 25.7806 17.5362 25.6513 18.7293 25.1571C19.9223 24.663 20.942 23.8261 21.6594 22.7524C22.3768 21.6787 22.7598 20.4164 22.7598 19.1251H26.6011Z" fill="#9693DD"/>
<path d="M26.6011 19.1251C26.6011 20.4869 26.3329 21.8354 25.8117 23.0936C25.2906 24.3518 24.5267 25.4951 23.5637 26.458C22.6007 27.421 21.4575 28.1849 20.1993 28.7061C18.9411 29.2272 17.5926 29.4955 16.2307 29.4955C14.8688 29.4955 13.5203 29.2272 12.2621 28.7061C11.0039 28.1849 9.8607 27.421 8.89771 26.458C7.93473 25.4951 7.17085 24.3518 6.64969 23.0936C6.12853 21.8354 5.86029 20.4869 5.86029 19.125L9.70163 19.125C9.70163 19.9825 9.87051 20.8315 10.1986 21.6236C10.5267 22.4158 11.0077 23.1355 11.614 23.7418C12.2202 24.3481 12.94 24.829 13.7321 25.1571C14.5243 25.4852 15.3733 25.6541 16.2307 25.6541C17.0881 25.6541 17.9371 25.4852 18.7293 25.1571C19.5214 24.829 20.2412 24.3481 20.8475 23.7418C21.4537 23.1355 21.9347 22.4158 22.2628 21.6236C22.5909 20.8315 22.7598 19.9825 22.7598 19.1251H26.6011Z" fill="#6D7CE3"/>
<path d="M26.6011 19.1251C26.6011 20.4869 26.3329 21.8354 25.8117 23.0936C25.2906 24.3518 24.5267 25.4951 23.5637 26.458C22.6007 27.421 21.4575 28.1849 20.1993 28.7061C18.9411 29.2272 17.5926 29.4955 16.2307 29.4955L16.2307 25.6541C17.0881 25.6541 17.9371 25.4852 18.7293 25.1571C19.5214 24.829 20.2412 24.3481 20.8475 23.7418C21.4537 23.1355 21.9347 22.4158 22.2628 21.6236C22.5909 20.8315 22.7598 19.9825 22.7598 19.1251H26.6011Z" fill="#54C179"/>
<path d="M16.2356 8.75483C16.5199 8.75483 16.8037 8.76653 17.0863 8.78978C17.1268 8.79312 17.1673 8.79669 17.2078 8.8005C18.2363 8.89735 19.2464 9.14751 20.2042 9.54423C21.4623 10.0654 22.6056 10.8293 23.5686 11.7923C24.5315 12.7552 25.2954 13.8985 25.8166 15.1567C26.3377 16.4149 26.606 17.7634 26.606 19.1252L22.7646 19.1252C22.7646 18.2678 22.5958 17.4188 22.2676 16.6267C21.9395 15.8345 21.4586 15.1148 20.8523 14.5085C20.246 13.9022 19.5263 13.4213 18.7341 13.0932C18.2433 12.8899 17.7307 12.7477 17.2078 12.669C16.8867 12.6206 16.5617 12.5962 16.2356 12.5962L16.2356 8.75483Z" fill="#77E37D"/>
<path d="M16.2356 12.5962L16.2356 8.75483C16.5199 8.75483 16.8037 8.76653 17.0863 8.78978C17.1268 8.79312 17.1673 8.79669 17.2078 8.8005L17.2078 6.00019L11.6175 10.6993L17.2078 15.3579L17.2078 12.669C16.8867 12.6206 16.5617 12.5962 16.2356 12.5962Z" fill="#77E37D"/>
</svg>
