<svg width="38" height="38" viewBox="0 0 38 38" fill="none" xmlns="http://www.w3.org/2000/svg">
<rect x="11.5" y="17.5" width="3" height="3" rx="0.2" fill="white"/>
<rect x="17.3008" y="17.5" width="3" height="3" rx="0.2" fill="white"/>
<rect x="23.1016" y="17.5" width="3" height="3" rx="0.2" fill="white"/>
<path d="M18.7604 17.2934C18.9923 16.7312 19.1082 16.4501 19.2727 16.3661C19.4155 16.2933 19.5845 16.2933 19.7273 16.3661C19.8918 16.4501 20.0077 16.7312 20.2396 17.2934L25.5395 30.145C25.6919 30.5147 25.7682 30.6995 25.7384 30.8481C25.7124 30.978 25.6359 31.0923 25.5257 31.1659C25.3997 31.25 25.1998 31.25 24.7999 31.25H14.2001C13.8002 31.25 13.6003 31.25 13.4743 31.1659C13.3641 31.0923 13.2876 30.978 13.2616 30.8481C13.2318 30.6995 13.3081 30.5147 13.4605 30.145L18.7604 17.2934Z" fill="#A1A6AB"/>
<circle cx="19" cy="13" r="12" fill="#E7EBEF"/>
<circle cx="18.75" cy="12.75" r="3.75" fill="#737A82"/>
</svg>
