<svg width="38" height="38" viewBox="0 0 38 38" fill="none" xmlns="http://www.w3.org/2000/svg">
<path d="M14.4491 26.1798C13.062 26.1814 11.675 26.1877 10.2879 26.1828C9.47601 26.18 8.87486 25.7739 8.5989 25.066C8.3287 24.3729 8.48872 23.6082 9.08472 23.0672C10.7676 21.5396 11.5017 19.6357 11.4727 17.3444C11.455 15.9528 11.4356 14.516 11.7361 13.174C12.5678 9.45956 16.4329 7.1234 20.0152 8.06474C19.1959 10.2033 19.2264 12.3193 20.3282 14.3461C21.434 16.3803 23.165 17.5482 25.411 17.9716C25.47 18.393 25.5062 18.8187 25.5918 19.2338C25.9004 20.7305 26.6298 21.9811 27.7492 22.9963C28.3047 23.5 28.5687 24.1059 28.3684 24.8711C28.1608 25.6648 27.5222 26.1752 26.6828 26.1814C25.3114 26.1915 23.9398 26.1837 22.4806 26.1769C19.745 26.1735 17.097 26.1766 14.4491 26.1798Z" fill="#FFB72D"/>
<path d="M31.4326 11.0573C31.2354 13.7425 29.4798 15.6633 26.9842 15.9672C24.4445 16.2765 22.0509 14.4992 21.5436 11.9275C21.0273 9.31089 22.5861 6.71016 25.0935 6.00455C28.3309 5.09352 31.4036 7.52112 31.4326 11.0573Z" fill="#F13A34"/>
<path d="M14.4563 26.2216C17.097 26.1767 19.745 26.1735 22.4383 26.1729C22.3957 27.3024 22.0656 28.327 21.2299 29.1161C20.0115 30.2663 18.5955 30.6008 17.044 29.9946C15.4974 29.3904 14.6438 28.1954 14.4847 26.5007C14.4773 26.4216 14.4706 26.3425 14.4563 26.2216Z" fill="#FE9526"/>
</svg>
