<svg width="38" height="38" viewBox="0 0 38 38" fill="none" xmlns="http://www.w3.org/2000/svg">
<g clip-path="url(#clip0_48_393)">
<path d="M13.4811 30.0781L10.875 26.06L25.9053 25.8165L27.2386 30.0781H13.4811Z" fill="#EEF3F7"/>
<path d="M29.543 19.5453C29.543 18.7383 30.1942 18.0842 30.9975 18.0842C31.8008 18.0842 32.4521 18.7383 32.4521 19.5453V21.9805C32.4521 22.7875 31.8008 23.4417 30.9975 23.4417C30.1942 23.4417 29.543 22.7875 29.543 21.9805V19.5453Z" fill="#D9D9D9"/>
<path d="M5.17969 19.5453C5.17969 18.7383 5.83091 18.0842 6.63423 18.0842C7.43756 18.0842 8.08878 18.7383 8.08878 19.5453V21.9805C8.08878 22.7875 7.43756 23.4417 6.63423 23.4417C5.83091 23.4417 5.17969 22.7875 5.17969 21.9805V19.5453Z" fill="#D9D9D9"/>
<path d="M6.51172 18.4485C6.51172 17.5743 7.21721 16.8656 8.08748 16.8656C8.95774 16.8656 9.66324 17.5743 9.66324 18.4485V23.0754C9.66324 23.9496 8.95774 24.6583 8.08748 24.6583C7.21721 24.6583 6.51172 23.9496 6.51172 23.0754V18.4485Z" fill="#E6E8EA"/>
<path d="M27.8438 18.4485C27.8438 17.5743 28.5492 16.8656 29.4195 16.8656C30.2898 16.8656 30.9953 17.5743 30.9953 18.4485V23.0754C30.9953 23.9496 30.2898 24.6583 29.4195 24.6583C28.5492 24.6583 27.8438 23.9496 27.8438 23.0754V18.4485Z" fill="#E6E8EA"/>
<path d="M13.567 1.88989C9.34879 1.88989 10.7993 9.39851 12.0518 13.1528L17.567 11.7526C17.9912 8.46501 17.7852 1.88989 13.567 1.88989Z" fill="#85D6FF"/>
<path d="M18.7448 11.5092C14.8971 11.479 7.38244 13.3933 7.86601 21.3113C7.8256 23.5233 9.32055 27.9229 15.6236 27.8255H18.7145H18.7751H21.866C28.169 27.9229 29.664 23.5233 29.6236 21.3113C30.1072 13.3933 22.5925 11.479 18.7448 11.5092Z" fill="#85D6FF"/>
<path d="M18.7589 13.2145C15.5501 13.1894 9.28326 14.775 9.68653 21.333C9.65284 23.1651 10.8995 26.8091 16.1559 26.7284H18.7336H18.7842H21.3618C26.6182 26.8091 27.8649 23.1651 27.8312 21.333C28.2345 14.775 21.9677 13.1894 18.7589 13.2145Z" fill="#FFFDFC"/>
<path d="M13.729 4.14278C11.3533 4.09407 12.5371 9.56116 13.426 12.3008L16.1531 11.4485C16.25 5.55524 14.5774 4.12249 13.729 4.14278Z" fill="#FFD2D0"/>
<path d="M23.8783 1.89003C28.0965 1.89003 26.646 9.39864 25.3935 13.153L19.8783 11.7527C19.4541 8.46514 19.6602 1.89003 23.8783 1.89003Z" fill="#85D6FF"/>
<path d="M23.9585 4.14278C26.3343 4.09407 25.1504 9.56116 24.2615 12.3008L21.5344 11.4485C21.4375 5.55524 23.1101 4.12249 23.9585 4.14278Z" fill="#FFD2D0"/>
<path d="M30.2517 32.5553C29.6977 32.4848 29.1428 32.4211 28.5903 32.34C28.5553 32.3349 28.5259 32.325 28.501 32.3109C28.3936 32.2501 28.3729 32.1125 28.3706 31.9532C28.1957 31.3516 28.0346 30.779 27.842 30.2172C27.7215 29.8659 27.5536 29.5311 27.407 29.1889C27.3917 29.1945 27.3765 29.2001 27.3613 29.2056C27.3763 29.2683 27.391 29.3311 27.4065 29.3937C27.4866 29.7179 27.5743 30.0404 27.6454 30.3666C27.769 30.9329 27.8825 31.5014 28.0002 32.069C28.0109 32.0992 28.0232 32.1292 28.0358 32.1592C28.0706 32.2417 28.1072 32.324 28.1169 32.4095C28.1941 33.088 28.2594 33.7679 28.3285 34.4835C28.3306 34.5731 28.3339 34.6267 28.3351 34.6802C28.3461 35.1523 28.3568 35.6244 28.3675 36.0964C28.3675 36.0964 28.3677 36.0992 28.3559 36.0998C28.3386 36.1124 28.3331 36.1245 28.3275 36.1365C28.3275 36.1365 28.3277 36.1392 28.3161 36.1404C28.2987 36.1533 28.2929 36.1651 28.287 36.1768C28.287 36.1768 28.2874 36.1794 28.273 36.1787C28.2412 36.2042 28.2239 36.2304 28.2066 36.2565C28.2066 36.2565 28.2069 36.2595 28.19 36.2561C28.0332 36.2962 27.8961 36.3594 27.753 36.3797C27.0423 36.4803 26.3313 36.581 25.618 36.6596C24.9701 36.7309 24.3196 36.7822 23.6692 36.8272C22.8058 36.8869 21.9418 36.9444 21.0772 36.979C20.4899 37.0025 19.901 36.9869 19.3129 36.9854C18.7903 36.984 18.4594 36.6513 18.4589 36.131C18.4582 35.4126 18.4881 34.6926 18.4486 33.9764C18.4182 33.4239 18.5924 33.091 19.1259 32.8855C19.7223 32.6558 20.2863 32.3409 20.8638 32.0618C21.7117 31.6519 22.561 31.2446 23.4056 30.8278C23.6715 30.6965 23.7407 30.4777 23.6205 30.2037C23.567 30.0818 23.4874 29.9717 23.4223 29.8549C23.3305 29.6903 23.2412 29.5244 23.1332 29.3269C23.2563 29.3269 23.329 29.3251 23.4016 29.3272C23.8549 29.3402 24.3082 29.3532 24.7614 29.3683C24.922 29.3736 25.0401 29.3124 25.0758 29.1499C25.2133 28.5242 25.3452 27.8973 25.4889 27.2609C25.5771 27.2152 25.6589 27.1853 25.7336 27.1427C26.1144 26.926 26.4934 26.706 26.873 26.4871C26.923 26.5352 26.9666 26.6146 27.0241 26.6265C27.7094 26.7688 28.3984 26.8934 29.0831 27.0388C29.5114 27.1298 29.9383 27.2336 30.3579 27.3587C30.7496 27.4755 31.1307 27.6281 31.5327 27.7888C31.586 27.8204 31.6231 27.8283 31.6602 27.8361C31.6602 27.8361 31.6577 27.8362 31.6638 27.8477C31.8401 27.9444 32.0102 28.0296 32.1806 28.1314C32.1749 28.1876 32.1737 28.2285 32.1622 28.2662C31.8947 29.1476 31.6337 30.0311 31.3549 30.9089C31.1753 31.4744 30.9692 32.0314 30.7577 32.594C30.5774 32.5822 30.4146 32.5688 30.2517 32.5553ZM19.608 34.4711C19.6605 34.062 19.4153 33.7724 19.0844 33.8528C18.8693 33.905 18.7308 34.0781 18.728 34.2982C18.7252 34.5162 18.8622 34.703 19.0674 34.761C19.2682 34.8177 19.4544 34.7242 19.608 34.4711Z" fill="#84D6FF"/>
<path d="M28.501 32.3109C28.3936 32.2501 28.3729 32.1125 28.3706 31.9532C28.1957 31.3516 28.0346 30.779 27.842 30.2172C27.7215 29.8659 27.5536 29.5311 27.407 29.1889L27.3613 29.2056C27.3763 29.2683 27.391 29.3311 27.4065 29.3937C27.4866 29.7179 27.5743 30.0404 27.6454 30.3666C27.769 30.9329 27.8825 31.5014 28.0002 32.069C28.0109 32.0992 28.0232 32.1292 28.0358 32.1592L28.501 32.3109Z" fill="#84D6FF"/>
<path d="M5.13672 28.1283C5.2804 28.0463 5.41686 27.946 5.56898 27.8855C6.37673 27.5637 7.1931 27.2701 8.05295 27.1128C8.41799 27.0461 8.7744 26.9328 9.13849 26.8594C9.56921 26.7727 10.004 26.7063 10.437 26.6311C10.4934 26.6213 10.5944 26.651 10.5361 26.5115C11.0164 26.7525 11.4854 27.0123 11.9542 27.2887C11.9676 27.3773 11.9791 27.4499 11.9947 27.5217C12.1084 28.0442 12.2196 28.5672 12.3391 29.0884C12.3739 29.2403 12.4592 29.3678 12.6359 29.3658C12.9357 29.3623 13.2353 29.3422 13.5352 29.3353C13.7647 29.33 13.9945 29.3343 14.2245 29.3343C14.2245 29.3729 14.2291 29.3883 14.2238 29.3984C14.1056 29.6239 13.9835 29.8473 13.8677 30.0741C13.6377 30.5243 13.6917 30.687 14.1524 30.911C14.5912 31.1243 15.0344 31.3283 15.4739 31.54C16.2509 31.9141 17.0264 32.2915 17.8031 32.6662C17.9505 32.7373 18.1008 32.8023 18.2706 32.8796C18.0565 33.1241 18.0498 33.3901 18.0511 33.6626C18.0554 34.5291 18.0514 35.3956 18.0545 36.2621C18.0549 36.3611 18.0579 36.4699 18.0973 36.557C18.18 36.7398 18.126 36.8387 17.9181 36.9282C17.8291 36.9665 17.7236 36.9853 17.6266 36.9824C16.3729 36.9457 15.1192 36.9074 13.8659 36.8601C13.4936 36.8461 13.1217 36.8099 12.7509 36.7718C12.1887 36.714 11.6269 36.6504 11.066 36.5803C10.6175 36.5243 10.1683 36.4675 9.72396 36.3858C9.51314 36.347 9.31305 36.2494 9.10809 36.1785C9.10809 36.1785 9.10529 36.1788 9.10875 36.1623C8.94955 35.8915 8.98161 35.6167 9.01137 35.3351C9.05409 34.9309 9.07434 34.5243 9.10418 34.1187C9.1063 33.9792 9.10843 33.8396 9.13692 33.6799C9.1834 33.528 9.20695 33.3967 9.22307 33.2645C9.36735 32.0814 9.59426 30.9142 9.89048 29.7604C9.94812 29.5359 10.0129 29.3133 10.0743 29.0898C9.5301 30.0981 9.16312 31.1687 8.90348 32.2784C8.72578 32.3266 8.55072 32.3941 8.36984 32.4192C7.97424 32.474 7.57568 32.5074 7.14214 32.5502C6.92953 32.5642 6.75309 32.5775 6.57512 32.5761C6.13365 31.1526 5.69443 29.7436 5.25173 28.3357C5.22848 28.2618 5.17574 28.1972 5.13672 28.1283ZM14.343 32.2871C14.3481 32.14 14.3603 31.9928 14.3563 31.8459C14.3527 31.7148 14.2789 31.6363 14.143 31.6277C13.9369 31.6145 13.7309 31.5982 13.5246 31.5893C12.8718 31.5611 12.2189 31.5364 11.5661 31.509C11.0193 31.486 10.9993 31.5036 10.9883 32.0451C10.9874 32.0919 10.99 32.1388 10.9881 32.2237C10.9914 32.6104 10.9656 32.9976 11.1078 33.3726C11.3537 34.0208 11.8073 34.4175 12.4949 34.4784C13.1683 34.538 13.6971 34.2562 14.0496 33.6666C14.2999 33.2479 14.3359 32.7849 14.343 32.2871Z" fill="#84D6FF"/>
<path d="M22.6494 28.1204C23.4832 27.9713 24.3016 27.7667 25.0844 27.4351C25.2071 27.3831 25.3286 27.3286 25.4651 27.2729C25.3455 27.8971 25.2133 28.5242 25.0758 29.1499C25.0401 29.3124 24.922 29.3736 24.7614 29.3683C24.3082 29.3532 23.8549 29.3402 23.4016 29.3272C23.329 29.3251 23.2563 29.3269 23.1332 29.3269C23.2412 29.5244 23.3305 29.6903 23.4223 29.8549C23.4874 29.9717 23.567 30.0818 23.6205 30.2037C23.7407 30.4777 23.6715 30.6965 23.4056 30.8278C22.561 31.2446 21.7117 31.6519 20.8638 32.0618C20.2863 32.3409 19.7223 32.6558 19.1259 32.8855C18.5924 33.091 18.4182 33.4239 18.4486 33.9764C18.4881 34.6926 18.4582 35.4126 18.4589 36.131C18.4594 36.6513 18.7903 36.984 19.3129 36.9854C19.901 36.9869 20.4899 37.0025 21.0772 36.979C21.9418 36.9444 22.8058 36.8869 23.6692 36.8272C24.3196 36.7822 24.9701 36.7309 25.618 36.6596C26.3313 36.581 27.0423 36.4803 27.753 36.3797C27.8961 36.3594 28.0335 36.296 28.1888 36.2558C28.1061 36.3091 28.0117 36.3904 27.909 36.403C27.6783 36.4315 27.6325 36.5818 27.6016 36.7702C27.5526 37.0687 27.4916 37.3653 27.4334 37.6622C27.4303 37.6781 27.4059 37.6897 27.3766 37.6927C27.3984 37.4858 27.435 37.2894 27.4763 37.0671C21.6309 37.8705 15.7967 37.8848 9.9578 37.0784C9.99805 37.3186 10.0343 37.5346 10.0705 37.7507C10.0177 37.5848 9.95534 37.4213 9.91487 37.2525C9.87418 37.0828 9.85821 36.9072 9.82604 36.7351C9.78691 36.5258 9.64193 36.4324 9.4494 36.3744C9.33224 36.3391 9.22702 36.2638 9.11328 36.1926C9.31508 36.2496 9.51518 36.3472 9.726 36.386C10.1703 36.4677 10.6195 36.5245 11.0681 36.5806C11.6289 36.6507 12.1907 36.7142 12.753 36.772C13.1238 36.8101 13.4957 36.8463 13.8679 36.8604C15.1212 36.9076 16.3749 36.9459 17.6286 36.9827C17.7257 36.9855 17.8311 36.9667 17.9201 36.9284C18.128 36.839 18.1821 36.74 18.0993 36.5572C18.0599 36.4701 18.0569 36.3613 18.0566 36.2623C18.0535 35.3958 18.0574 34.5293 18.0532 33.6628C18.0518 33.3903 18.0585 33.1243 18.2726 32.8798C18.1028 32.8025 17.9526 32.7375 17.8052 32.6664C17.0284 32.2917 16.253 31.9143 15.476 31.5402C15.0364 31.3286 14.5932 31.1245 14.1545 30.9112C13.6937 30.6872 13.6398 30.5246 13.8697 30.0743C13.9855 29.8476 14.1076 29.6241 14.2259 29.3986C14.2312 29.3885 14.2266 29.3731 14.2266 29.3345C13.9966 29.3345 13.7668 29.3303 13.5372 29.3355C13.2374 29.3425 12.9378 29.3625 12.6379 29.366C12.4612 29.368 12.3759 29.2406 12.3411 29.0886C12.2217 28.5674 12.1104 28.0444 11.9968 27.5219C11.9811 27.4501 11.9696 27.3775 11.9563 27.2889C12.8493 27.6611 13.7759 27.9371 14.7528 28.1276C14.9042 28.3117 15.0276 28.4865 15.1693 28.6447C15.6188 29.1464 16.0751 29.6419 16.5344 30.1517C16.8827 30.5544 17.2253 30.9451 17.5741 31.3484C17.9517 31.7706 18.3232 32.1802 18.7289 32.6276C19.1045 32.1768 19.4693 31.7388 19.8471 31.2987C20.1941 30.9215 20.5282 30.5465 20.8731 30.1639C21.1856 29.8184 21.4908 29.4837 21.7876 29.1415C22.0793 28.8051 22.3625 28.4611 22.6494 28.1204Z" fill="#3DBDF6"/>
<path d="M30.7695 32.5917C30.9637 32.0309 31.1698 31.4738 31.3494 30.9083C31.6282 30.0305 31.8892 29.147 32.1568 28.2657C32.1682 28.2279 32.1694 28.187 32.1907 28.1309C32.2352 28.1165 32.2644 28.1186 32.2935 28.1208C32.2935 28.1208 32.2947 28.1177 32.2903 28.1333C32.3554 28.18 32.4247 28.2111 32.4941 28.2422C32.4941 28.2422 32.4953 28.239 32.4893 28.2545C32.5271 28.2873 32.5708 28.3048 32.6145 28.3222C32.6145 28.3222 32.6158 28.3193 32.6114 28.3342C32.6633 28.3801 32.7197 28.4111 32.7761 28.4422C32.7761 28.4422 32.7766 28.4397 32.775 28.4524C32.7881 28.4706 32.8027 28.4762 32.8173 28.4818C32.8173 28.4818 32.8172 28.4794 32.8194 28.4928C32.9398 28.5929 33.058 28.6795 33.1762 28.7662C33.1762 28.7662 33.1774 28.7631 33.1706 28.7787C33.1812 28.7981 33.1985 28.802 33.2158 28.8058C33.2158 28.8058 33.2176 28.8028 33.2106 28.8187C33.221 28.8384 33.2385 28.8423 33.256 28.8461C33.256 28.8461 33.2577 28.8431 33.2505 28.8592C33.2607 28.879 33.2783 28.8829 33.2958 28.8867C33.2958 28.8867 33.2969 28.8837 33.2844 28.8956C33.307 28.9405 33.3421 28.9735 33.3771 29.0064C33.3771 29.0064 33.3782 29.004 33.3755 29.0184C33.3875 29.0376 33.4024 29.0424 33.4172 29.0472C33.4172 29.0472 33.418 29.0445 33.4089 29.0562C33.4171 29.0877 33.4344 29.1075 33.4518 29.1274C33.4548 29.1398 33.4603 29.1511 33.4809 29.18C33.5081 29.2023 33.5227 29.2057 33.5372 29.2091C33.5372 29.2091 33.5381 29.2062 33.5283 29.2204C33.5917 29.36 33.6648 29.4856 33.7378 29.6111C33.7378 29.6111 33.7392 29.6086 33.7338 29.6254C33.7712 29.9367 33.8483 30.2316 33.8462 30.526C33.8445 30.7711 33.7499 31.0156 33.6965 31.2603C33.6965 31.2603 33.6991 31.2613 33.6843 31.2615C33.5982 31.3955 33.5269 31.5294 33.4557 31.6632C33.4557 31.6632 33.4584 31.6643 33.4434 31.6616C33.3971 31.714 33.3658 31.769 33.3346 31.8241C33.3346 31.8241 33.3376 31.8252 33.3222 31.8187C33.3029 31.8294 33.299 31.8467 33.295 31.864C33.295 31.864 33.2979 31.8656 33.2825 31.8592C33.263 31.8699 33.2589 31.8871 33.2548 31.9042C33.2548 31.9042 33.2577 31.9059 33.2421 31.8994C33.2224 31.9099 33.2184 31.927 33.2143 31.9441C33.2143 31.9441 33.2175 31.9461 33.2014 31.9389C33.1816 31.9494 33.1781 31.9671 33.1745 31.9849C33.1745 31.9849 33.1775 31.9858 33.1644 31.9739C33.1055 32.0098 33.0597 32.0576 33.0138 32.1055C33.0138 32.1055 33.0168 32.1068 33.0045 32.0952C32.9466 32.1188 32.9008 32.1541 32.8551 32.1893C32.8551 32.1893 32.8555 32.1869 32.8435 32.1872C32.8256 32.2008 32.8198 32.2141 32.8139 32.2273C32.8139 32.2273 32.8165 32.2284 32.8014 32.2217C32.5683 32.3132 32.3503 32.4114 32.1323 32.5096C32.1323 32.5096 32.1347 32.5106 32.1192 32.5045C32.0465 32.5163 31.9892 32.5341 31.9319 32.552C31.9319 32.552 31.9328 32.5495 31.9163 32.5473C31.5231 32.5607 31.1463 32.5762 30.7695 32.5917Z" fill="#EEF3F7"/>
<path d="M5.13598 28.1268C5.17664 28.1967 5.22939 28.2613 5.25264 28.3352C5.69533 29.7431 6.13455 31.1521 6.55735 32.5781C6.16475 32.5799 5.78928 32.5643 5.41381 32.5488C5.41381 32.5488 5.41388 32.5511 5.408 32.5374C5.35239 32.5186 5.30266 32.5135 5.25292 32.5085C5.25292 32.5085 5.25313 32.511 5.24789 32.4973C5.01912 32.3977 4.7956 32.3118 4.57207 32.2258C4.57207 32.2258 4.57137 32.2282 4.56996 32.2136C4.5432 32.1942 4.51786 32.1894 4.49253 32.1846C4.49253 32.1846 4.49124 32.1875 4.49435 32.1724C4.36208 32.0588 4.2267 31.9602 4.09133 31.8617C4.09133 31.8617 4.09085 31.8647 4.1028 31.8522C3.79412 31.4641 3.56614 31.0394 3.55512 30.5389C3.54861 30.2431 3.6165 29.9456 3.65093 29.6489C3.65093 29.6489 3.64856 29.6485 3.66271 29.6452C3.70859 29.5506 3.74032 29.4591 3.77206 29.3677C3.77206 29.3677 3.76936 29.3665 3.7843 29.3678C3.87049 29.2478 3.94174 29.1265 4.01299 29.0052C4.01299 29.0052 4.01001 29.0042 4.02447 29.0105C4.12304 28.9162 4.20714 28.8156 4.29124 28.715C4.41272 28.6099 4.5342 28.5048 4.68466 28.4052C4.81275 28.34 4.91186 28.2692 5.01097 28.1985C5.01097 28.1985 5.01133 28.1962 5.0249 28.201C5.07016 28.1804 5.10186 28.155 5.13355 28.1296L5.13598 28.1268Z" fill="#EEF3F7"/>
<path d="M8.91797 32.2741C9.1613 31.1686 9.52828 30.0979 10.0725 29.0896C10.011 29.3131 9.94629 29.5358 9.88866 29.7602C9.59243 30.914 9.36553 32.0812 9.22125 33.2643C9.20513 33.3965 9.18158 33.5278 9.14849 33.6696C9.1873 33.1868 9.23911 32.6939 9.29173 32.1932C9.17001 32.2194 9.05215 32.2447 8.91797 32.2741Z" fill="#3DBDF6"/>
<path d="M28 32.1586C27.8792 31.6082 27.7671 30.9311 27.6435 30.3648C27.5723 30.0386 27.4847 29.7161 27.4046 29.3919C27.3891 29.3293 27.3744 29.2666 27.3594 29.2039C27.3746 29.1983 27.3898 29.1928 27.4051 29.1872C27.5517 29.5294 27.7196 29.8642 27.8401 30.2154C28.0327 30.7772 28.1938 31.3499 28.3679 31.9352C28.3163 31.7544 28.1431 31.8032 28.0045 31.7806C28.0045 31.8599 28.0031 32.055 28 32.1586Z" fill="#3DBDF6"/>
<path d="M28.3679 31.9352C28.3163 31.7544 28.1431 31.8032 28.0045 31.7806C28.0045 31.8599 28.0031 32.055 28 32.1586L28.5 32.3093L28.3679 31.9352Z" fill="#3DBDF6"/>
<path d="M9.08628 34.1271C9.06987 34.5237 9.04962 34.9303 9.0069 35.3345C8.97714 35.6161 8.94508 35.8909 9.10456 36.1603C8.83718 36.0256 8.89832 35.767 8.90563 35.5384C8.9142 35.27 8.95128 35.0023 8.98322 34.7351C9.00718 34.5347 9.04256 34.3357 9.08628 34.1271Z" fill="#3DBDF6"/>
<path d="M28.3843 36.0908C28.3589 35.6229 28.3482 35.1509 28.3372 34.6788C28.3359 34.6252 28.3327 34.5717 28.332 34.5004C28.3721 34.6035 28.4337 34.7223 28.4441 34.8455C28.4709 35.1608 28.4826 35.4781 28.4833 35.7946C28.4836 35.8919 28.4287 35.9893 28.3843 36.0908Z" fill="#3DBDF6"/>
<path d="M32.1523 32.5088C32.3537 32.4103 32.5717 32.3121 32.8043 32.2192C32.6023 32.3194 32.3856 32.4142 32.1523 32.5088Z" fill="#1394FA"/>
<path d="M32.2959 28.1063C32.2702 28.1183 32.241 28.1162 32.1963 28.1139C32.0105 28.0287 31.8404 27.9435 31.6641 27.8456C31.8694 27.9193 32.081 28.0057 32.2959 28.1063Z" fill="#1394FA"/>
<path d="M4.08985 31.8756C4.22334 31.9604 4.35872 32.059 4.49237 32.1718C4.35767 32.0872 4.2247 31.9883 4.08985 31.8756Z" fill="#1394FA"/>
<path d="M33.7387 29.5947C33.6652 29.4848 33.5921 29.3593 33.5273 29.2201C33.6035 29.3306 33.6713 29.4549 33.7387 29.5947Z" fill="#1394FA"/>
<path d="M33.1761 28.7531C33.0601 28.6802 32.9419 28.5936 32.8203 28.4936C32.936 28.5666 33.055 28.6529 33.1761 28.7531Z" fill="#1394FA"/>
<path d="M3.75836 29.3707C3.74133 29.4586 3.70959 29.55 3.66406 29.6458C3.6814 29.5582 3.71252 29.4662 3.75836 29.3707Z" fill="#1394FA"/>
<path d="M32.4958 28.2268C32.4287 28.2099 32.3594 28.1788 32.293 28.133C32.3618 28.1498 32.4277 28.1812 32.4958 28.2268Z" fill="#1394FA"/>
<path d="M33.0352 32.1062C33.0668 32.0573 33.1126 32.0095 33.1709 31.9721C33.1387 32.0241 33.094 32.0657 33.0352 32.1062Z" fill="#1394FA"/>
<path d="M32.7765 28.4279C32.723 28.4106 32.6666 28.3796 32.6133 28.3345C32.6688 28.3517 32.7212 28.3829 32.7765 28.4279Z" fill="#1394FA"/>
<path d="M33.3516 31.8207C33.3691 31.768 33.4004 31.7129 33.446 31.6593C33.4286 31.7133 33.397 31.7659 33.3516 31.8207Z" fill="#1394FA"/>
<path d="M32.8711 32.1882C32.902 32.1535 32.9477 32.1182 33.0053 32.093C32.9733 32.1313 32.9297 32.1595 32.8711 32.1882Z" fill="#1394FA"/>
<path d="M32.6126 28.3083C32.5712 28.3045 32.5275 28.2871 32.4883 28.255C32.532 28.2584 32.5711 28.2765 32.6126 28.3083Z" fill="#1394FA"/>
<path d="M31.9492 32.5521C31.9904 32.5343 32.0477 32.5165 32.1201 32.5035C32.0786 32.5229 32.022 32.5374 31.9492 32.5521Z" fill="#1394FA"/>
<path d="M33.3834 28.992C33.3482 28.9729 33.3132 28.94 33.2891 28.8955C33.3278 28.9154 33.3557 28.9468 33.3834 28.992Z" fill="#1394FA"/>
<path d="M5.25781 32.5219C5.30209 32.5125 5.35182 32.5175 5.40855 32.536C5.36479 32.545 5.31403 32.5407 5.25781 32.5219Z" fill="#1394FA"/>
<path d="M28.2188 36.2562C28.2214 36.2291 28.2387 36.203 28.2691 36.1771C28.266 36.204 28.2497 36.2305 28.2188 36.2562Z" fill="#3DBDF6"/>
<path d="M33.4611 29.114C33.441 29.1077 33.4236 29.0879 33.4141 29.0567C33.4358 29.0638 33.4498 29.0822 33.4611 29.114Z" fill="#1394FA"/>
<path d="M4.49219 32.1977C4.51491 32.1894 4.54025 32.1942 4.56816 32.2131C4.54542 32.2218 4.52012 32.2164 4.49219 32.1977Z" fill="#1394FA"/>
<path d="M33.1877 31.9839C33.1796 31.967 33.1832 31.9492 33.2019 31.9371C33.2111 31.9562 33.2053 31.9696 33.1877 31.9839Z" fill="#1394FA"/>
<path d="M32.8262 32.2244C32.8208 32.2125 32.8265 32.1996 32.8451 32.1864C32.8511 32.1985 32.8442 32.211 32.8262 32.2244Z" fill="#1394FA"/>
<path d="M33.2302 31.9435C33.2226 31.927 33.2266 31.9099 33.2455 31.8979C33.2542 31.9163 33.2481 31.9296 33.2302 31.9435Z" fill="#1394FA"/>
<path d="M33.2693 31.9035C33.2616 31.8869 33.2657 31.8697 33.2844 31.8576C33.293 31.876 33.287 31.8895 33.2693 31.9035Z" fill="#1394FA"/>
<path d="M33.3085 31.8624C33.3007 31.8457 33.3046 31.8285 33.3232 31.8162C33.332 31.8348 33.3261 31.8483 33.3085 31.8624Z" fill="#1394FA"/>
<path d="M28.3375 36.1333C28.3329 36.1228 28.3383 36.111 28.3538 36.0986C28.3585 36.1094 28.353 36.1208 28.3375 36.1333Z" fill="#3DBDF6"/>
<path d="M28.2944 36.1743C28.2901 36.1641 28.2958 36.1527 28.3114 36.14C28.3157 36.1502 28.31 36.1616 28.2944 36.1743Z" fill="#3DBDF6"/>
<path d="M32.8189 28.4701C32.8062 28.4759 32.7916 28.4703 32.7773 28.4524C32.7908 28.4463 32.8039 28.4525 32.8189 28.4701Z" fill="#1394FA"/>
<path d="M33.2219 28.7934C33.2052 28.8014 33.1878 28.7976 33.1758 28.7788C33.1945 28.7698 33.2079 28.7757 33.2219 28.7934Z" fill="#1394FA"/>
<path d="M33.2533 28.8338C33.2364 28.8418 33.219 28.838 33.207 28.8191C33.226 28.8101 33.2394 28.816 33.2533 28.8338Z" fill="#1394FA"/>
<path d="M33.2964 28.8743C33.2793 28.8823 33.2622 28.8782 33.2505 28.8592C33.2696 28.8501 33.2826 28.8564 33.2964 28.8743Z" fill="#1394FA"/>
<path d="M33.4168 29.0352C33.4031 29.0419 33.3887 29.037 33.3755 29.0184C33.3901 29.0109 33.4027 29.0173 33.4168 29.0352Z" fill="#1394FA"/>
<path d="M33.5387 29.1954C33.5265 29.2052 33.512 29.2018 33.4922 29.1852C33.5034 29.1754 33.5199 29.1788 33.5387 29.1954Z" fill="#1394FA"/>
<path d="M19.5977 34.484C19.453 34.7235 19.2668 34.817 19.066 34.7603C18.8608 34.7023 18.7238 34.5155 18.7266 34.2975C18.7294 34.0774 18.8679 33.9043 19.083 33.8521C19.4139 33.7717 19.6592 34.0613 19.5977 34.484Z" fill="#262524"/>
<path d="M14.3218 32.3111C14.3371 32.784 14.3012 33.247 14.0508 33.6657C13.6983 34.2553 13.1695 34.5371 12.4961 34.4775C11.8085 34.4166 11.3549 34.0199 11.1091 33.3718C10.9668 32.9968 10.9927 32.6095 11.0096 32.2033C12.1271 32.2263 13.2244 32.2687 14.3218 32.3111Z" fill="#3EBEF6"/>
<path d="M14.3319 32.2988C13.2233 32.2689 12.126 32.2264 11.0099 32.1844C10.9902 32.138 10.9874 32.0919 10.9883 32.0451C10.9993 31.5036 11.0193 31.486 11.5661 31.509C12.2189 31.5364 12.8718 31.5611 13.5246 31.5893C13.7309 31.5982 13.9369 31.6145 14.143 31.6277C14.2789 31.6363 14.3527 31.7148 14.3563 31.8459C14.3603 31.9928 14.3483 32.1393 14.3319 32.2988Z" fill="#FAF7F2"/>
<path d="M19.8341 31.3C19.4692 31.738 19.1045 32.1768 18.7289 32.6276C18.3232 32.1802 17.9516 31.7698 17.5763 31.3314C17.6709 30.8611 17.7722 30.4201 17.8648 29.9773C17.8776 29.9163 17.8685 29.8305 17.8335 29.783C17.6753 29.5688 17.5042 29.3642 17.3438 29.1448C17.542 28.9147 17.7344 28.696 17.941 28.4774C17.9884 28.4527 18.0214 28.4279 18.0544 28.4031C18.0729 28.4005 18.0914 28.3979 18.134 28.4095C18.2438 28.4169 18.3294 28.41 18.415 28.4031C18.446 28.4006 18.4771 28.3982 18.5355 28.4105C18.7544 28.4178 18.9459 28.4104 19.1373 28.403C19.2072 28.4004 19.2771 28.3978 19.367 28.4047C19.387 28.4141 19.4022 28.4195 19.4022 28.4195L19.4167 28.4087C19.4167 28.4087 19.4328 28.4037 19.4466 28.4155C19.6466 28.644 19.8345 28.8591 20.0169 29.0789C20.0402 29.107 20.0349 29.1591 20.0325 29.2077C19.8716 29.4102 19.7168 29.602 19.5735 29.8022C19.5391 29.8503 19.5204 29.931 19.5329 29.9883C19.6279 30.4267 19.7325 30.863 19.8341 31.3Z" fill="#262524"/>
<path d="M17.9243 28.4777C17.732 28.6964 17.5396 28.915 17.3336 29.1568C17.1366 29.3891 16.9507 29.5959 16.7715 29.8084C16.6832 29.9132 16.6076 30.0286 16.5262 30.1392C16.0725 29.6414 15.6162 29.1459 15.1668 28.6442C15.025 28.486 14.9017 28.3112 14.7656 28.1309C15.2682 28.1818 15.7746 28.2501 16.2821 28.308C16.5198 28.3352 16.7596 28.349 16.9988 28.3573C17.329 28.3686 17.6596 28.3689 17.9911 28.3915C17.9696 28.4319 17.9469 28.4548 17.9243 28.4777Z" fill="#EEF3F7"/>
<path d="M20.0411 29.1991C20.0331 29.1581 20.0384 29.1061 20.015 29.078C19.8327 28.8582 19.6448 28.643 19.4531 28.4137C20.1759 28.3594 20.9048 28.3271 21.6321 28.2718C21.9608 28.2468 22.2861 28.1761 22.6302 28.1224C22.3605 28.4593 22.0774 28.8033 21.7856 29.1397C21.4888 29.4819 21.1836 29.8166 20.8609 30.1534C20.6152 29.8521 20.3923 29.5508 20.1637 29.2538C20.1397 29.2225 20.0828 29.2167 20.0411 29.1991Z" fill="#EEF3F7"/>
<path d="M19.1189 28.4004C18.9459 28.41 18.7544 28.4174 18.5508 28.4138C18.7258 28.4012 18.9131 28.3997 19.1189 28.4004Z" fill="black"/>
<path d="M18.3985 28.4005C18.3302 28.4096 18.2446 28.4165 18.1484 28.4129C18.219 28.401 18.3001 28.3996 18.3985 28.4005Z" fill="black"/>
<path d="M17.9375 28.4778C17.9458 28.4549 17.9685 28.432 18.0011 28.402C18.0177 28.3963 18.0244 28.3977 18.041 28.4013C18.0179 28.4283 17.9849 28.4531 17.9375 28.4778Z" fill="black"/>
<path d="M19.4067 28.4044C19.415 28.4087 19.4008 28.4191 19.4008 28.4191C19.4008 28.4191 19.386 28.4139 19.3831 28.4086C19.3802 28.4033 19.3985 28.4001 19.4067 28.4044Z" fill="black"/>
<path d="M16.5313 30.1511C16.6069 30.0285 16.6832 29.9132 16.7715 29.8084C16.9507 29.5959 17.136 29.389 17.327 29.1681C17.5012 29.3645 17.6723 29.569 17.8304 29.7833C17.8655 29.8307 17.8746 29.9165 17.8618 29.9776C17.7692 30.4204 17.6679 30.8614 17.5671 31.3191C17.2221 30.9445 16.8795 30.5537 16.5313 30.1511Z" fill="#DEE4E9"/>
<path d="M20.0348 29.2073C20.0868 29.2173 20.1437 29.2231 20.1678 29.2544C20.3963 29.5514 20.6193 29.8527 20.854 30.1615C20.5302 30.5453 20.1962 30.9204 19.8492 31.2975C19.7347 30.8627 19.6302 30.4264 19.5351 29.988C19.5227 29.9307 19.5413 29.8499 19.5758 29.8018C19.719 29.6017 19.8738 29.4099 20.0348 29.2073Z" fill="#DEE4E9"/>
<path d="M13.7793 22.4604C13.4824 22.8854 13.0542 23.0662 12.5869 23.1505C11.8728 23.2794 11.2514 23.0812 10.7717 22.522C10.4227 22.1151 10.4209 21.4717 10.7916 21.0272C11.4661 20.2186 12.9051 20.2 13.632 20.9419C14.0467 21.3652 14.1244 21.9305 13.7793 22.4604Z" fill="#FFD2D0"/>
<path d="M26.9905 21.3082C27.2197 21.9002 27.0252 22.455 26.5238 22.8225C25.822 23.337 24.7424 23.3014 24.0797 22.7516C23.4565 22.2346 23.4773 21.3489 24.1212 20.8171C24.817 20.2424 26.1403 20.2492 26.7536 20.9679C26.8396 21.0687 26.9079 21.1848 26.9905 21.3082Z" fill="#FFD2D0"/>
<path d="M16.1548 19.3624C16.1548 20.1358 15.585 20.7627 14.8821 20.7627C14.1792 20.7627 13.6094 20.1358 13.6094 19.3624C13.6094 18.5891 14.1792 17.9622 14.8821 17.9622C15.585 17.9622 16.1548 18.5891 16.1548 19.3624Z" fill="#272625"/>
<path d="M24.1587 19.3624C24.1587 20.1358 23.5889 20.7627 22.886 20.7627C22.1831 20.7627 21.6133 20.1358 21.6133 19.3624C21.6133 18.5891 22.1831 17.9622 22.886 17.9622C23.5889 17.9622 24.1587 18.5891 24.1587 19.3624Z" fill="#272625"/>
<path d="M20.4633 21.2916C20.5747 21.1238 20.8005 21.0784 20.9676 21.1903C21.1347 21.3022 21.1798 21.529 21.0684 21.6969C20.8269 22.0607 20.1506 22.8336 18.8265 22.8336C18.1808 22.8336 17.6981 22.6684 17.3323 22.4337C16.9709 22.2019 16.7441 21.9151 16.5943 21.7109C16.4752 21.5485 16.5097 21.3199 16.6714 21.2002C16.8331 21.0805 17.0607 21.1152 17.1798 21.2776C17.3128 21.4589 17.476 21.6592 17.7237 21.818C17.9669 21.974 18.3125 22.103 18.8265 22.103C19.8215 22.103 20.3008 21.5365 20.4633 21.2916Z" fill="#262524"/>
</g>
<defs>
<clipPath id="clip0_48_393">
<rect width="30" height="34" fill="white" transform="translate(4 2)"/>
</clipPath>
</defs>
</svg>
