<svg width="38" height="38" viewBox="0 0 38 38" fill="none" xmlns="http://www.w3.org/2000/svg">
<path d="M23.506 26.8099C22.9716 27.1114 22.5397 26.7751 22.0068 26.5496C21.3344 25.8469 20.7493 25.1698 20.1413 24.5136C19.739 24.0794 19.3076 23.6713 18.8816 23.2593C18.6322 23.0181 18.2891 22.9066 18.0922 23.2197C17.9663 23.4198 18.0575 23.7712 18.096 24.0486C18.1095 24.1461 18.2552 24.2261 18.3421 24.3126C18.9936 24.9617 19.617 25.6422 20.3053 26.25C20.9777 26.8437 21.2872 27.5305 21.1473 28.4138C20.4378 28.7052 19.8738 28.4506 19.3399 27.929C19.3038 27.9108 19.3048 27.9162 19.2919 27.8892C19.2559 27.8281 19.2249 27.804 19.1519 27.767C18.1497 26.7156 17.2007 25.6679 16.1943 24.6779C16.0314 24.5176 15.5344 24.4896 15.3315 24.6182C14.9839 24.8386 15.1493 25.1901 15.4078 25.4491C15.9878 26.0305 16.621 26.5682 17.1386 27.1997C17.6679 27.8454 18.571 28.3291 18.3166 29.4005C17.808 29.6325 17.4643 29.3436 17.1445 29.0193C15.366 27.2154 13.5867 25.412 11.8181 23.5985C10.7363 22.4892 9.54258 21.5524 8.01288 20.9942C8.95821 18.1431 9.94137 15.3437 10.9245 12.5442C12.1196 12.9073 13.3235 13.2416 14.5896 13.1564C15.3004 13.1085 16.0067 12.9951 16.7544 12.9497C16.0971 13.6499 15.3498 14.2681 14.7251 14.9911C14.4061 15.3603 14.1683 15.908 14.1356 16.3912C14.0533 17.6114 14.1079 18.8407 14.1077 20.0664C14.1076 20.4473 14.1077 20.8281 14.1077 21.3189C14.6661 21.2023 15.1328 21.1527 15.5659 21.0053C16.7886 20.5893 17.7921 19.636 17.8366 18.1341C17.8664 17.127 18.5828 16.5291 19.3985 15.9941C19.9341 16.5506 20.4296 17.0654 20.9019 17.6189C20.8567 17.9086 20.7292 18.2218 20.8342 18.3978C21.0594 18.7752 21.3921 19.0937 21.7027 19.4154C22.9496 20.7071 24.2077 21.988 25.4553 23.279C25.841 23.6782 26.054 24.1418 25.9216 24.7173C25.9034 24.7962 25.9667 24.8937 25.9922 24.9826C25.4854 24.9395 24.9786 24.8965 24.3909 24.8238C23.2986 23.7225 22.3002 22.638 21.2584 21.5965C21.1369 21.475 20.7104 21.4968 20.538 21.6148C20.0875 21.9231 20.3704 22.26 20.6351 22.5295C21.3972 23.3055 22.1588 24.083 22.9492 24.83C23.5442 25.3923 23.7975 26.017 23.506 26.8099Z" fill="#FDDABF"/>
<path d="M20.9251 17.5802C20.4296 17.0654 19.9341 16.5506 19.3985 15.9941C18.5828 16.5291 17.8664 17.127 17.8365 18.1341C17.792 19.636 16.7885 20.5893 15.5658 21.0053C15.1328 21.1527 14.6661 21.2023 14.1077 21.3189C14.1077 20.8281 14.1076 20.4473 14.1077 20.0664C14.1079 18.8407 14.0532 17.6114 14.1356 16.3912C14.1682 15.908 14.4061 15.3603 14.7251 14.9911C15.3498 14.2681 16.0971 13.6498 16.8079 12.9494C17.0428 12.7295 17.2613 12.5456 17.4845 12.3677C18.7248 11.379 20.1043 11.1948 21.5989 11.6617C23.1432 12.144 24.6758 12.6917 26.4168 12.5798C26.8737 13.6944 27.2621 14.7692 27.6299 15.851C28.201 17.5304 28.7582 19.2145 29.3212 20.8967C28.8112 21.1493 28.3211 21.4619 27.7856 21.6385C27.2015 21.8312 26.5754 21.8978 25.8849 21.9849C25.4985 21.7554 25.1525 21.6036 24.898 21.3581C23.7534 20.2537 22.638 19.1195 21.5033 18.0048C21.3346 17.8391 21.119 17.7206 20.9251 17.5802Z" fill="#FDC4A4"/>
<path d="M10.928 12.5003C9.94134 15.3434 8.95818 18.1429 7.97011 20.9865C7.55656 22.0203 7.55656 22.0203 6.45044 22.0203C5.44862 22.0203 4.44679 22.0203 3.37753 22.0203C3.37753 21.7314 3.37753 21.5122 3.37753 21.293C3.37753 17.837 3.39152 14.381 3.36377 10.9252C3.35914 10.3487 3.48754 10.1158 4.10388 10.0332C6.61578 9.69671 9.00983 10.0647 11.3965 11.0621C11.2359 11.5437 11.0837 12.0001 10.928 12.5003Z" fill="#3D9CFA"/>
<path d="M29.3546 20.9268C28.7582 19.2145 28.201 17.5303 27.6299 15.8509C27.2621 14.7692 26.8737 13.6943 26.4728 12.5744C26.2995 12.0686 26.148 11.6048 25.952 11.0051C26.916 10.7244 27.8413 10.409 28.7891 10.1895C30.3466 9.82873 31.9226 9.83056 33.5031 10.0795C33.8498 10.1341 34.0032 10.2419 34.002 10.6144C33.9894 14.339 33.9912 18.0636 33.9876 21.7882C33.9876 21.8273 33.9687 21.8665 33.9294 22.019C33.4992 22.019 33.0376 22.019 32.576 22.019C31.8761 22.019 31.1734 21.9806 30.4773 22.0313C29.9311 22.071 29.617 21.9168 29.5377 21.358C29.5182 21.2201 29.4395 21.0904 29.3546 20.9268Z" fill="#FFCD54"/>
<path d="M20.9019 17.6189C21.119 17.7205 21.3346 17.8391 21.5033 18.0048C22.638 19.1194 23.7534 20.2537 24.898 21.3581C25.1525 21.6036 25.4985 21.7554 25.8291 21.9835C26.0285 22.2125 26.1986 22.4106 26.3742 22.6037C27.106 23.4082 26.9893 24.3314 26.0335 24.9711C25.9666 24.8936 25.9034 24.7962 25.9216 24.7172C26.054 24.1418 25.841 23.6781 25.4553 23.279C24.2077 21.988 22.9496 20.707 21.7027 19.4154C21.3921 19.0937 21.0593 18.7752 20.8342 18.3978C20.7292 18.2217 20.8567 17.9086 20.9019 17.6189Z" fill="#FDDABF"/>
<path d="M23.5503 26.8054C23.7975 26.0169 23.5441 25.3923 22.9492 24.8299C22.1588 24.0829 21.3971 23.3054 20.6351 22.5294C20.3704 22.2599 20.0874 21.923 20.538 21.6147C20.7104 21.4967 21.1369 21.4749 21.2583 21.5964C22.3002 22.6379 23.2986 23.7224 24.3441 24.8177C24.6475 25.8818 24.4409 26.3984 23.5503 26.8054Z" fill="#FDDABF"/>
<path d="M21.1916 28.4073C21.2872 27.5304 20.9777 26.8437 20.3053 26.25C19.617 25.6422 18.9936 24.9616 18.3421 24.3126C18.2552 24.2261 18.1095 24.146 18.096 24.0486C18.0575 23.7711 17.9663 23.4197 18.0922 23.2196C18.2891 22.9066 18.6322 23.0181 18.8816 23.2593C19.3076 23.6713 19.739 24.0794 20.1413 24.5136C20.7493 25.1697 21.3344 25.8469 21.9629 26.534C22.107 27.317 22.0567 28.0158 21.1916 28.4073Z" fill="#FDDABF"/>
<path d="M18.3623 29.3978C18.5709 28.3289 17.6678 27.8452 17.1386 27.1996C16.6209 26.5681 15.9877 26.0303 15.4077 25.449C15.1493 25.19 14.9838 24.8385 15.3315 24.6181C15.5344 24.4895 16.0313 24.5175 16.1943 24.6778C17.2006 25.6678 18.1497 26.7155 19.1626 27.7955C19.2282 27.8862 19.2606 27.9092 19.3047 27.9161C19.3047 27.9161 19.3038 27.9107 19.301 27.9113C19.301 28.584 19.1753 29.18 18.3623 29.3978Z" fill="#FDDABF"/>
<path d="M19.2919 27.889C19.2607 27.9092 19.2282 27.8862 19.1967 27.8183C19.2249 27.8038 19.2559 27.828 19.2919 27.889Z" fill="#F6F6F6"/>
</svg>
