<svg width="38" height="38" viewBox="0 0 38 38" fill="none" xmlns="http://www.w3.org/2000/svg">
<path d="M13.2206 7H20.0162C21.7916 7 22.6792 7 23.3573 7.34551C23.9538 7.64942 24.4388 8.13437 24.7427 8.73084C25.0882 9.40894 25.0882 10.2966 25.0882 12.072V14.5287H23.3051C21.5817 14.5287 20.1846 15.9258 20.1846 17.6492V17.8473C20.1846 19.5707 21.5817 20.9677 23.3051 20.9677H25.0882V24.217C25.0882 25.9923 25.0882 26.88 24.7427 27.5581C24.4388 28.1546 23.9538 28.6395 23.3573 28.9434C22.6792 29.2889 21.7916 29.2889 20.0162 29.2889H13.2206C11.4452 29.2889 10.5575 29.2889 9.87943 28.9434C9.28296 28.6395 8.79802 28.1546 8.4941 27.5581C8.14859 26.88 8.14859 25.9923 8.14859 24.217V12.072C8.14859 10.2966 8.14859 9.40894 8.4941 8.73084C8.79802 8.13437 9.28296 7.64942 9.87943 7.34551C10.5575 7 11.4452 7 13.2206 7Z" fill="#208EED"/>
<path d="M8 27.1967V9.55369C8 7.86066 9.66088 6.66677 11.2657 7.20623L16.9122 9.10437C17.9204 9.44329 18.5996 10.3882 18.5996 11.4518V29.5414C18.5996 31.3074 16.8042 32.5059 15.1733 31.8286L9.52678 29.4839C8.60244 29.1 8 28.1975 8 27.1967Z" fill="#5AAEF1"/>
<path d="M33.1617 16.5595C33.8456 16.5595 34.4 17.1139 34.4 17.7977C34.4 18.4816 33.8456 19.036 33.1617 19.036H24.4443C23.7604 19.036 23.206 18.4816 23.206 17.7977C23.206 17.1139 23.7604 16.5595 24.4443 16.5595H33.1617Z" fill="#56727F"/>
<path d="M27.5647 13.439C27.5647 12.7551 28.1191 12.2008 28.803 12.2008C29.4869 12.2008 30.0413 12.7551 30.0413 13.439V22.1565C30.0413 22.8404 29.4869 23.3947 28.803 23.3947C28.1191 23.3947 27.5647 22.8404 27.5647 22.1565V13.439Z" fill="#56727F"/>
</svg>
