<svg width="38" height="38" viewBox="0 0 38 38" fill="none" xmlns="http://www.w3.org/2000/svg">
<path d="M6 10.2C6 9.07989 6 8.51984 6.20991 8.09202C6.39456 7.71569 6.68919 7.40973 7.05157 7.21799C7.46355 7 8.00286 7 9.08148 7H28.9185C29.9971 7 30.5364 7 30.9484 7.21799C31.3108 7.40973 31.6054 7.71569 31.7901 8.09202C32 8.51984 32 9.0799 32 10.2V21.8C32 22.9201 32 23.4802 31.7901 23.908C31.6054 24.2843 31.3108 24.5903 30.9484 24.782C30.5364 25 29.9971 25 28.9185 25H19H12.7407H9.08148C8.00286 25 7.46355 25 7.05157 24.782C6.68919 24.5903 6.39456 24.2843 6.20991 23.908C6 23.4802 6 22.9201 6 21.8V10.2Z" fill="#6C78FC"/>
<path d="M12.7407 25V31L19 25H12.7407Z" fill="#6C78FC"/>
<rect x="11.5" y="14.5" width="3" height="3" rx="0.2" fill="white"/>
<rect x="17.3008" y="14.5" width="3" height="3" rx="0.2" fill="white"/>
<rect x="23.1016" y="14.5" width="3" height="3" rx="0.2" fill="white"/>
</svg>
