<svg width="22" height="22" viewBox="0 0 22 22" fill="none" xmlns="http://www.w3.org/2000/svg">
<path d="M14.7812 13.4062C14.7812 13.6797 14.6726 13.942 14.4792 14.1354C14.2858 14.3288 14.0235 14.4375 13.75 14.4375H8.25C7.9765 14.4375 7.71419 14.3288 7.5208 14.1354C7.3274 13.942 7.21875 13.6797 7.21875 13.4062C7.21875 13.1327 7.3274 12.8704 7.5208 12.677C7.71419 12.4836 7.9765 12.375 8.25 12.375H13.75C14.0235 12.375 14.2858 12.4836 14.4792 12.677C14.6726 12.8704 14.7812 13.1327 14.7812 13.4062ZM13.75 8.93749H8.25C7.9765 8.93749 7.71419 9.04614 7.5208 9.23954C7.3274 9.43294 7.21875 9.69524 7.21875 9.96874C7.21875 10.2422 7.3274 10.5045 7.5208 10.6979C7.71419 10.8913 7.9765 11 8.25 11H13.75C14.0235 11 14.2858 10.8913 14.4792 10.6979C14.6726 10.5045 14.7812 10.2422 14.7812 9.96874C14.7812 9.69524 14.6726 9.43294 14.4792 9.23954C14.2858 9.04614 14.0235 8.93749 13.75 8.93749ZM18.9062 4.12499V18.5625C18.9062 19.0183 18.7252 19.4555 18.4028 19.7778C18.0805 20.1002 17.6433 20.2812 17.1875 20.2812H4.8125C4.35666 20.2812 3.91949 20.1002 3.59716 19.7778C3.27483 19.4555 3.09375 19.0183 3.09375 18.5625V4.12499C3.09375 3.66915 3.27483 3.23198 3.59716 2.90965C3.91949 2.58732 4.35666 2.40624 4.8125 2.40624H7.77992C8.1961 1.97164 8.69595 1.62579 9.24936 1.38952C9.80276 1.15324 10.3983 1.03143 11 1.03143C11.6017 1.03143 12.1972 1.15324 12.7506 1.38952C13.304 1.62579 13.8039 1.97164 14.2201 2.40624H17.1875C17.6433 2.40624 18.0805 2.58732 18.4028 2.90965C18.7252 3.23198 18.9062 3.66915 18.9062 4.12499ZM11 3.09374C10.4214 3.0938 9.86224 3.30233 9.42489 3.68112C8.98754 4.05991 8.70133 4.5836 8.61867 5.15624H13.3813C13.2987 4.5836 13.0125 4.05991 12.5751 3.68112C12.1378 3.30233 11.5786 3.0938 11 3.09374ZM16.8438 4.46874H15.3476C15.4278 4.80663 15.4685 5.15271 15.4688 5.49999V6.18749C15.4688 6.461 15.3601 6.7233 15.1667 6.9167C14.9733 7.11009 14.711 7.21874 14.4375 7.21874H7.5625C7.289 7.21874 7.02669 7.11009 6.8333 6.9167C6.6399 6.7233 6.53125 6.461 6.53125 6.18749V5.49999C6.53153 5.15271 6.5722 4.80663 6.65242 4.46874H5.15625V18.2187H16.8438V4.46874Z" fill="#72A7FF"/>
</svg>
