<svg width="22" height="22" viewBox="0 0 22 22" fill="none" xmlns="http://www.w3.org/2000/svg">
<path d="M19.25 3.78125H2.75C2.29416 3.78125 1.85699 3.96233 1.53466 4.28466C1.21233 4.60699 1.03125 5.04416 1.03125 5.5V16.5C1.03125 16.9558 1.21233 17.393 1.53466 17.7153C1.85699 18.0377 2.29416 18.2188 2.75 18.2188H19.25C19.7058 18.2188 20.143 18.0377 20.4653 17.7153C20.7877 17.393 20.9688 16.9558 20.9688 16.5V5.5C20.9688 5.04416 20.7877 4.60699 20.4653 4.28466C20.143 3.96233 19.7058 3.78125 19.25 3.78125ZM18.9062 5.84375V7.5625H3.09375V5.84375H18.9062ZM3.09375 16.1562V9.625H18.9062V16.1562H3.09375ZM17.875 14.0938C17.875 14.3673 17.7663 14.6296 17.573 14.823C17.3796 15.0163 17.1173 15.125 16.8438 15.125H14.0938C13.8202 15.125 13.5579 15.0163 13.3645 14.823C13.1712 14.6296 13.0625 14.3673 13.0625 14.0938C13.0625 13.8202 13.1712 13.5579 13.3645 13.3645C13.5579 13.1712 13.8202 13.0625 14.0938 13.0625H16.8438C17.1173 13.0625 17.3796 13.1712 17.573 13.3645C17.7663 13.5579 17.875 13.8202 17.875 14.0938ZM12.0312 14.0938C12.0312 14.3673 11.9226 14.6296 11.7292 14.823C11.5358 15.0163 11.2735 15.125 11 15.125H9.96875C9.69525 15.125 9.43294 15.0163 9.23955 14.823C9.04615 14.6296 8.9375 14.3673 8.9375 14.0938C8.9375 13.8202 9.04615 13.5579 9.23955 13.3645C9.43294 13.1712 9.69525 13.0625 9.96875 13.0625H11C11.2735 13.0625 11.5358 13.1712 11.7292 13.3645C11.9226 13.5579 12.0312 13.8202 12.0312 14.0938Z" fill="#72A7FF"/>
</svg>
