<svg width="21" height="21" viewBox="0 0 21 21" fill="none" xmlns="http://www.w3.org/2000/svg">
<path d="M20.5087 10.5C20.5087 4.97658 16.0321 0.5 10.5087 0.5C4.98525 0.5 0.508667 4.97658 0.508667 10.5C0.508667 15.4922 4.16492 19.6289 8.94617 20.3789V13.3906H6.40708V10.5H8.94617V8.29688C8.94617 5.791 10.4384 4.40625 12.7235 4.40625C13.8172 4.40625 14.9618 4.60156 14.9618 4.60156V7.0625H13.7001C12.4579 7.0625 12.0712 7.834 12.0712 8.625V10.5H14.8446L14.4013 13.3906H12.0712V20.3789C16.8524 19.6289 20.5087 15.4922 20.5087 10.5Z" fill="#1877F2"/>
<path d="M14.4013 13.3906L14.8446 10.5H12.0712V8.625C12.0712 7.834 12.4579 7.0625 13.7001 7.0625H14.9618V4.60156C14.9618 4.60156 13.8173 4.40625 12.7235 4.40625C10.4384 4.40625 8.94619 5.791 8.94619 8.29687V10.5H6.4071V13.3906H8.94619V20.3789C9.45594 20.459 9.97744 20.5 10.5087 20.5C11.0399 20.5 11.5614 20.459 12.0712 20.3789V13.3906H14.4013Z" fill="white"/>
</svg>
