<svg width="21" height="21" viewBox="0 0 21 21" fill="none" xmlns="http://www.w3.org/2000/svg">
<g clip-path="url(#clip0_7_79)">
<circle cx="10.5087" cy="10.2158" r="10" fill="url(#paint0_linear_7_79)"/>
<path d="M13.203 3.54883C15.3932 3.54883 17.1756 5.33127 17.1757 7.52148V12.9102C17.1757 15.1004 15.3932 16.8828 13.203 16.8828H7.81433C5.62412 16.8828 3.84167 15.1004 3.84167 12.9102V7.52148C3.84167 5.33127 5.62412 3.54883 7.81433 3.54883H13.203ZM7.81433 4.89062C6.36143 4.89062 5.18347 6.06856 5.18347 7.52148V12.9102C5.18347 14.3631 6.36143 15.541 7.81433 15.541H13.203C14.6559 15.541 15.8339 14.3631 15.8339 12.9102V7.52148C15.8339 6.06856 14.6559 4.89062 13.203 4.89062H7.81433ZM10.5087 6.76758C12.4102 6.76758 13.9569 8.31433 13.9569 10.2158C13.9569 12.1173 12.4101 13.6641 10.5087 13.6641C8.60719 13.6641 7.06044 12.1173 7.06042 10.2158C7.06042 8.31435 8.60718 6.76758 10.5087 6.76758ZM10.5087 8.1084C9.34494 8.1084 8.40125 9.05207 8.40125 10.2158C8.40125 11.3796 9.34492 12.3232 10.5087 12.3232C11.6724 12.3232 12.6161 11.3795 12.6161 10.2158C12.6161 9.05207 11.6724 8.10841 10.5087 8.1084ZM13.9637 5.9668C14.42 5.9668 14.7898 6.33673 14.7899 6.79297C14.7899 7.24934 14.4201 7.61914 13.9637 7.61914C13.5074 7.6191 13.1376 7.24931 13.1376 6.79297C13.1377 6.33676 13.5075 5.96684 13.9637 5.9668Z" fill="white"/>
</g>
<defs>
<linearGradient id="paint0_linear_7_79" x1="4.57117" y1="20.2158" x2="13.6337" y2="0.215821" gradientUnits="userSpaceOnUse">
<stop stop-color="#FBD06F"/>
<stop offset="0.3" stop-color="#F16C2E"/>
<stop offset="0.6" stop-color="#C82E96"/>
<stop offset="1" stop-color="#4E6AD6"/>
</linearGradient>
<clipPath id="clip0_7_79">
<rect width="20" height="20" fill="white" transform="translate(0.508667 0.21582)"/>
</clipPath>
</defs>
</svg>
