<svg width="178" height="36" viewBox="0 0 178 36" fill="none" xmlns="http://www.w3.org/2000/svg">
<path fill-rule="evenodd" clip-rule="evenodd" d="M165.128 13.4417C165.646 11.5441 168.544 11.156 169.928 11.1991H172.98H173.313C174.428 11.1712 176.263 10.866 176.712 9.77589L177.541 6.32568C177.166 6.53389 175.374 6.94611 171.19 6.96532C171.097 6.96575 171.003 6.96598 170.907 6.96601L169.042 6.97057C166.72 7.14146 165.663 9.86078 165.425 11.1991L165.128 13.4417Z" fill="#3C82F6"/>
<path d="M168.15 23.1934L169.928 11.1991C168.544 11.156 165.646 11.5441 165.128 13.4417L163.933 22.6662L168.15 23.1934Z" fill="#3C82F6"/>
<path d="M168.233 24.9326L170.153 11.1563C168.729 11.1142 165.749 11.4933 165.216 13.347L163.602 24.9326H168.233Z" fill="white"/>
<path d="M160.633 11.1563L161.248 7.01074L166.469 7.02563C164.934 7.51769 164.088 9.97946 163.804 11.1563H160.633Z" fill="white"/>
<path d="M158.579 11.1563L159.337 7.01074L154.339 11.1563H158.579Z" fill="white"/>
<path d="M154.203 11.7093L158.392 11.6482L158.389 11.6693L156.53 23.0446L152.005 25.1633L154.193 11.7698L154.199 11.7304L154.203 11.7093Z" fill="white"/>
<path d="M26.4269 3.80322C27.8952 5.27282 28.1254 7.00762 27.8004 8.49229C27.493 9.89642 26.6985 11.089 26.0445 11.7972L22.2339 16.5316L20.1745 14.8741L24.0449 10.0653L24.08 10.028C24.5073 9.57414 25.0324 8.77419 25.2179 7.9269C25.3815 7.17918 25.2884 6.4227 24.5863 5.7016L24.5164 5.63196C23.958 5.09084 23.4629 4.86914 23.0492 4.79457C22.6292 4.71887 22.1868 4.77588 21.712 4.96158C20.717 5.35085 19.7507 6.23907 19.0179 7.11014L18.8928 7.26041C17.6767 8.73412 14.0576 13.4353 11.6945 16.524L10.7387 17.775L10.7357 17.779L10.7326 17.783L8.96874 20.0584C8.71259 20.4104 8.30658 21.1924 8.22754 21.9908C8.15761 22.6971 8.32814 23.3577 9.16767 23.8921C10.0395 24.4469 10.9191 24.419 11.8814 23.9658C12.8672 23.5015 13.853 22.6151 14.6954 21.5917L14.7765 21.4923C15.6688 20.3869 16.5151 19.3367 17.1721 18.5204L19.2314 20.178C18.5737 20.9953 17.7266 22.0464 16.8335 23.1528L16.7401 23.2673C15.7656 24.4521 14.4846 25.6621 13.0077 26.3576C11.4278 27.1016 9.55632 27.273 7.74828 26.1223C5.90792 24.9509 5.44876 23.2254 5.59675 21.7304C5.73506 20.3334 6.38927 19.1043 6.84376 18.4856L6.85381 18.4719L6.86432 18.4584L8.6369 16.1717L9.58654 14.9286C11.9436 11.8476 15.6049 7.09063 16.865 5.56428L16.9949 5.40831C17.8252 4.42139 19.138 3.12993 20.749 2.49971C21.5774 2.17568 22.5199 2.01298 23.518 2.19287C24.5224 2.3739 25.4785 2.88315 26.356 3.73337L26.4269 3.80322Z" fill="white"/>
<path d="M26.5461 3.68442C28.0617 5.20149 28.2995 6.99803 27.9646 8.52822C27.6495 9.9676 26.8378 11.185 26.1698 11.909L22.2593 16.7682L19.938 14.8999L23.9179 9.95451L23.9224 9.95006L23.9576 9.91284C24.3699 9.47482 24.8759 8.70099 25.0533 7.89093C25.1312 7.53508 25.1462 7.18565 25.0631 6.84387C24.9803 6.5033 24.7978 6.15997 24.4656 5.81883L24.4658 5.81827L24.3995 5.7524C23.8614 5.2311 23.3954 5.02807 23.0193 4.96025C22.636 4.89118 22.2252 4.94131 21.7731 5.11817C20.8175 5.49202 19.8736 6.35417 19.147 7.21767L19.0226 7.36741C17.809 8.83806 14.1922 13.5359 11.8281 16.626L10.8729 17.8764L10.8698 17.8801L10.8688 17.8816L10.8658 17.8856L10.8657 17.8862L9.1045 20.1574L9.00717 20.3018C8.76806 20.681 8.46083 21.3415 8.39487 22.0072C8.36169 22.3423 8.38712 22.6532 8.51101 22.939C8.63424 23.2232 8.86158 23.4978 9.25813 23.7502C9.66986 24.0122 10.0774 24.1336 10.4926 24.1389C10.9097 24.1442 11.3446 24.0324 11.8095 23.8135C12.7638 23.3641 13.7307 22.4986 14.5649 21.4852L14.6459 21.3863C15.5381 20.281 16.3842 19.2311 17.0412 18.4149L17.1465 18.2839L19.4679 20.1526L19.3626 20.2835L16.9642 23.2586L16.9637 23.2594L16.8703 23.3737L16.8701 23.3743C15.8875 24.569 14.5875 25.7992 13.0793 26.5095C11.4604 27.2719 9.52587 27.4527 7.65801 26.264C5.75364 25.0519 5.27645 23.2585 5.42935 21.7138C5.57139 20.2792 6.24078 19.0223 6.70787 18.3863L6.71804 18.3725L6.72097 18.3685L8.50372 16.0686L9.45289 14.8267C11.809 11.747 15.4727 6.98677 16.7353 5.45735L16.7358 5.45659L16.8657 5.30053L16.8664 5.30012C17.7029 4.3058 19.0376 2.98873 20.6878 2.3432C21.5386 2.01041 22.5129 1.84076 23.5478 2.02728C24.5897 2.21508 25.5754 2.7426 26.473 3.61245L26.474 3.61332L26.5449 3.68319L26.5461 3.68442ZM27.6361 8.45633C27.9512 7.01728 27.7285 5.34439 26.3078 3.92232L26.2378 3.85332C25.3809 3.02331 24.4545 2.53241 23.4881 2.35824C22.5269 2.185 21.6163 2.34116 20.8105 2.65636C19.2389 3.27112 17.9482 4.53655 17.1241 5.51597L16.9943 5.67204C15.7364 7.19582 12.0779 11.9486 9.71999 15.0307L8.7705 16.2737L8.76963 16.2747L6.99726 18.5612L6.9971 18.5618L6.9893 18.5713L6.97948 18.5849C6.53764 19.1864 5.89877 20.3875 5.76414 21.7468C5.62108 23.1921 6.06225 24.8498 7.83858 25.9804C9.58676 27.093 11.3949 26.9309 12.9358 26.2053C14.3811 25.5247 15.6435 24.3356 16.6099 23.1608L16.703 23.0466C17.5489 21.9987 18.3535 20.9999 18.9949 20.2031L17.1977 18.7565L14.9075 21.5981L14.9068 21.5985L14.8257 21.6979L14.8251 21.6987C13.9748 22.7318 12.9704 23.639 11.9532 24.1181C11.4558 24.3523 10.9695 24.4812 10.4882 24.4751C10.0053 24.4689 9.5372 24.3267 9.07721 24.034C8.63427 23.7521 8.3567 23.429 8.20227 23.0728C8.04849 22.7181 8.02334 22.3454 8.06008 21.9742C8.14285 21.1383 8.56424 20.3284 8.83273 19.9594L8.83566 19.9554L10.5994 17.6803L10.6023 17.6763L10.6042 17.6738L10.6051 17.6728L11.5606 16.4222L11.5608 16.4216C13.9229 13.3342 17.5444 8.63024 18.7631 7.15348L18.7636 7.15272L18.8888 7.00259L18.8893 7.00182C19.6282 6.12347 20.6166 5.20942 21.6508 4.80482C22.148 4.61037 22.6222 4.54671 23.0787 4.62894C23.5299 4.71028 24.0548 4.95039 24.6336 5.51122L24.635 5.5128L24.705 5.58272L24.7067 5.5841C25.0765 5.96395 25.2917 6.35958 25.3901 6.76433C25.4883 7.168 25.468 7.57112 25.3823 7.96298C25.1886 8.84746 24.6446 9.67378 24.2024 10.1435L24.1708 10.1768L20.4108 14.8481L22.2082 16.295L25.9133 11.6919L25.9169 11.6875L25.9209 11.6829C26.5605 10.9903 27.3368 9.82369 27.6361 8.45633Z" fill="white"/>
<path d="M4.65014 11.2347C5.91205 9.58952 7.48295 9.00111 8.96173 9.08209C10.3352 9.15732 11.495 9.79823 12.1761 10.3653L12.4404 10.5651L10.7675 12.5936L10.4788 12.3752L10.4528 12.3531C10.0683 12.0272 9.40064 11.6747 8.71616 11.6372C8.15694 11.6066 7.46434 11.7707 6.75134 12.6797L6.68227 12.77C5.67309 14.1232 5.7574 15.0263 6.00575 15.6287C6.28323 16.3018 6.86953 16.8337 7.35474 17.1822L7.45022 17.2495L7.45876 17.2553L7.46732 17.2614L13.8556 21.8231L21.3002 26.5118C21.9142 26.8078 23.2225 27.0042 24.1954 25.8947L24.2575 25.8219C24.8805 25.0746 24.8989 24.4549 24.7767 23.9731C24.6384 23.4278 24.2909 22.9909 24.0999 22.8116L24.0639 22.7792C23.5766 22.3618 17.6208 17.8428 14.6509 15.5965L16.2992 13.5495C19.206 15.7481 25.2659 20.3439 25.8285 20.8258L25.8739 20.8655C26.3493 21.2885 27.0298 22.1378 27.3165 23.2678C27.6288 24.4993 27.4491 25.9976 26.2122 27.4485L26.1524 27.5174C23.9875 29.9867 21.1003 29.3465 19.9746 28.7673L19.9263 28.7424L19.8805 28.7134L12.3519 23.9718L12.3213 23.9526L5.87363 19.3486C5.24845 18.9157 4.13811 18.0291 3.57508 16.6634C2.95927 15.1697 3.08803 13.3282 4.59023 11.3139L4.65014 11.2347Z" fill="white"/>
<path d="M4.51683 11.132C5.81171 9.44386 7.43525 8.82969 8.97076 8.91374C10.3851 8.9912 11.5755 9.6482 12.2774 10.2307L12.6818 10.5365L10.7947 12.8246L10.3773 12.5089L10.3733 12.506L10.3696 12.503L10.3439 12.4809C9.97991 12.1724 9.34605 11.8395 8.70696 11.8045C8.44869 11.7903 8.16366 11.8211 7.86095 11.9585C7.55764 12.0963 7.22675 12.3458 6.88376 12.7831L6.8832 12.783L6.81644 12.8699L6.81701 12.87C6.32429 13.5307 6.10741 14.0698 6.03864 14.5065C5.97024 14.941 6.04659 15.2863 6.16119 15.5643C6.42047 16.1931 6.97538 16.702 7.45168 17.0442L7.54479 17.1102L7.55344 17.1161L7.55687 17.1179L7.56518 17.124L13.9534 21.6857L21.3778 26.3617C21.9528 26.6369 23.1655 26.8134 24.0687 25.7833L24.1295 25.7123C24.4256 25.3566 24.5716 25.0394 24.6321 24.7617C24.6926 24.4838 24.6698 24.2353 24.6137 24.0139C24.4858 23.5099 24.162 23.1012 23.9871 22.9361L23.9512 22.9038C23.444 22.4721 17.5164 17.9745 14.5494 15.7303L14.4112 15.6254L16.2706 13.3164L16.4007 13.415C19.1219 15.4732 24.6244 19.6457 25.7692 20.5598L25.938 20.6977L25.9392 20.6989L25.9846 20.7385L25.9856 20.7394C26.4801 21.1794 27.1829 22.0565 27.4796 23.2261C27.8049 24.5088 27.6135 26.0636 26.3402 27.5571L26.3394 27.5581L26.2794 27.6272L26.2789 27.628C24.0424 30.1789 21.0594 29.5141 19.8978 28.9164L19.8491 28.8916L19.8428 28.8881L19.8361 28.8839L19.7905 28.8554L12.2622 24.1135L12.2317 24.0946L12.2236 24.0889L5.77772 19.4862C5.1443 19.0476 4.0015 18.1382 3.41974 16.7272C2.77826 15.1712 2.92298 13.2677 4.45522 11.213L4.45608 11.212L4.51597 11.1329L4.51683 11.132ZM8.9525 9.24946C7.53049 9.17159 6.01243 9.73473 4.78352 11.3368L4.78296 11.3367L4.72449 11.4149C3.25307 13.3884 3.1404 15.1678 3.73044 16.5989C4.27466 17.919 5.35229 18.7825 5.96925 19.2097L5.97156 19.2112L12.4159 23.8129L12.4412 23.8286L19.9701 28.5706L20.0079 28.5947L20.0515 28.6173C21.1413 29.1781 23.9328 29.7935 26.026 27.4061L26.0851 27.3379C27.2848 25.9301 27.4525 24.4887 27.1533 23.3088C26.8769 22.2192 26.2194 21.3979 25.7632 20.9916L25.719 20.9532C25.1694 20.4825 19.2844 16.0186 16.3272 13.7815L14.8904 15.5668C17.7079 17.6983 22.9644 21.6865 24.0188 22.5255L24.1733 22.6512L24.1766 22.6536L24.2127 22.6863L24.2151 22.6887C24.4227 22.8837 24.7914 23.3471 24.9396 23.9314C25.0057 24.1917 25.0348 24.4941 24.9609 24.8334C24.8871 25.1724 24.7126 25.5383 24.3866 25.9293L24.3854 25.9305L24.3233 26.0033L24.3219 26.0051C23.2818 27.1914 21.8819 26.9785 21.2272 26.6628L21.2187 26.6588L21.2104 26.6536L13.7659 21.965L13.7619 21.9622L13.758 21.9597L7.3696 17.3976L7.36401 17.3938L7.35535 17.3879L7.35325 17.3867L7.25784 17.3192L7.25651 17.3186C6.76268 16.964 6.14576 16.4089 5.85028 15.6922C5.71656 15.3678 5.62682 14.9602 5.70646 14.4543C5.78576 13.9505 6.03083 13.3613 6.54724 12.6689L6.5486 12.6671L6.61772 12.5769L6.61873 12.5754C6.98874 12.1037 7.36086 11.8162 7.72191 11.6522C8.08342 11.4881 8.42437 11.4523 8.72522 11.4688C9.40949 11.5063 10.0689 11.8358 10.4823 12.1597L10.5614 12.2244L10.5619 12.2246L10.5802 12.2405L10.7402 12.3616L12.1987 10.5931L12.0745 10.4991L12.0716 10.4966L12.0683 10.4942C11.4074 9.94393 10.281 9.32222 8.9525 9.24946Z" fill="white"/>
<path d="M140.112 24.6181L136.479 18.9414H135.672L134.89 24.6181H130.323L132.821 6.75537H139.961C143.645 6.75537 146.268 8.7233 145.764 12.9115C145.31 16.2166 143.897 17.3267 141.45 18.4873L145.739 24.6181H140.112ZM136.227 15.056H138.876C140.264 15.056 141.071 14.0216 141.197 12.9871C141.323 11.9023 140.794 10.9688 139.456 10.9688H136.807L136.227 15.056Z" fill="white"/>
<path d="M121.95 11.0192L121.571 13.6683H128.812L128.257 17.6799H121.016L120.638 20.3543H128.509L127.929 24.6181H115.491L117.989 6.75537H130.427L129.821 11.0192H121.95Z" fill="white"/>
<path d="M98.4409 24.6181L100.939 6.75537H105.228L108.482 14.3748L109.492 17.9574L109.593 17.9322L109.542 14.8542L110.677 6.75537H115.168L112.671 24.6181H108.104L105.051 17.579L103.991 13.9963L103.891 14.0216L103.941 17.4781L102.957 24.6181H98.4409Z" fill="white"/>
<path d="M98.5956 10.8677H93.7767L91.8845 24.6179H87.3179L89.2101 10.8677H84.3912L84.9967 6.72998H99.2011L98.5956 10.8677Z" fill="white"/>
<path d="M77.5305 24.6181L73.8974 18.9414H73.0901L72.3079 24.6181H67.7413L70.2391 6.75537H77.3791C81.0627 6.75537 83.6866 8.7233 83.182 12.9115C82.7279 16.2166 81.315 17.3267 78.8677 18.4873L83.1568 24.6181H77.5305ZM73.6451 15.056H76.2943C77.6819 15.056 78.4892 14.0216 78.6154 12.9871C78.7415 11.9023 78.2117 10.9688 76.8745 10.9688H74.2254L73.6451 15.056Z" fill="white"/>
<path d="M62.6831 6.75537L66.5685 24.6181H61.7244L61.0432 21.0355H56.2747L54.6853 24.6181H49.8411L58.5707 6.75537H62.6831ZM57.8642 17.0239H60.5386L60.0088 11.8013H59.8322L57.8642 17.0239Z" fill="white"/>
<path d="M37.1403 24.6176L39.638 6.75488H46.7781C51.1428 6.75488 52.7828 9.95907 52.4296 13.1885C52.0511 16.5693 49.5534 19.395 45.2391 19.395H42.3881L41.6564 24.6176H37.1403ZM42.9431 15.3835H45.5671C46.9799 15.4087 47.7873 14.2734 47.9387 13.0623C48.09 11.8765 47.5098 10.9683 46.1978 10.9683H43.5739L42.9431 15.3835Z" fill="white"/>
</svg>
