<svg width="169" height="34" viewBox="0 0 169 34" fill="none" xmlns="http://www.w3.org/2000/svg">
<path fill-rule="evenodd" clip-rule="evenodd" d="M156.634 12.75C157.125 10.95 159.874 10.5818 161.187 10.6227H164.082H164.398C165.456 10.5962 167.196 10.3067 167.622 9.27273L168.408 6C168.052 6.1975 166.353 6.58851 162.384 6.60673C162.296 6.60714 162.207 6.60736 162.116 6.60739L160.346 6.61171C158.144 6.77381 157.141 9.35326 156.916 10.6227L156.634 12.75Z" fill="#3C82F6"/>
<path d="M159.5 22L161.187 10.6227C159.874 10.5818 157.125 10.95 156.634 12.75L155.5 21.5L159.5 22Z" fill="#3C82F6"/>
<path d="M159.58 23.65L161.4 10.5823C160.05 10.5423 157.223 10.902 156.717 12.6604L155.186 23.65H159.58Z" fill="black"/>
<path d="M152.371 10.5823L152.953 6.65L157.906 6.66412C156.449 7.13087 155.647 9.46601 155.378 10.5823H152.371Z" fill="black"/>
<path d="M150.422 10.5823L151.141 6.65L146.4 10.5823H150.422Z" fill="black"/>
<path d="M146.271 11.1067L150.244 11.0488L150.241 11.0688L148.478 21.8589L144.185 23.8687L146.261 11.1641L146.267 11.1267L146.271 11.1067Z" fill="black"/>
<path d="M25.0675 3.60758C26.4603 5.00159 26.6786 6.64715 26.3703 8.05545C26.0788 9.38736 25.3251 10.5186 24.7048 11.1904L21.0902 15.6812L19.1368 14.109L22.808 9.5475L22.8413 9.51218C23.2467 9.08165 23.7447 8.32285 23.9207 7.51914C24.0759 6.80989 23.9876 6.09232 23.3216 5.40831L23.2553 5.34225C22.7256 4.82897 22.256 4.61867 21.8636 4.54794C21.4652 4.47614 21.0455 4.53021 20.5952 4.70636C19.6513 5.0756 18.7348 5.91813 18.0396 6.7444L17.921 6.88694C16.7674 8.28484 13.3344 12.7442 11.0929 15.674L10.1863 16.8606L10.1835 16.8644L10.1805 16.8683L8.50739 19.0266C8.26442 19.3605 7.8793 20.1023 7.80432 20.8596C7.73799 21.5296 7.89974 22.1562 8.69609 22.6631C9.52309 23.1894 10.3574 23.1629 11.2702 22.733C12.2053 22.2926 13.1404 21.4518 13.9395 20.481L14.0164 20.3868C14.8628 19.3382 15.6655 18.342 16.2887 17.5677L18.2422 19.1401C17.6182 19.9153 16.8148 20.9123 15.9676 21.9618L15.879 22.0704C14.9546 23.1943 13.7395 24.3421 12.3386 25.0018C10.8399 25.7075 9.06475 25.8701 7.34971 24.7785C5.60402 23.6675 5.16848 22.0307 5.30886 20.6126C5.44005 19.2874 6.06061 18.1216 6.49172 17.5347L6.50125 17.5217L6.51122 17.5089L8.19262 15.3398L9.09341 14.1607C11.3293 11.2382 14.8022 6.72589 15.9974 5.27806L16.1207 5.13011C16.9083 4.19395 18.1535 2.96893 19.6817 2.37113C20.4675 2.06376 21.3615 1.90944 22.3083 2.08007C23.261 2.25178 24.1679 2.73484 25.0002 3.54133L25.0675 3.60758Z" fill="black"/>
<path d="M25.1806 3.4949C26.6182 4.93393 26.8438 6.63805 26.5261 8.08953C26.2272 9.45487 25.4573 10.6096 24.8236 11.2964L21.1143 15.9056L18.9124 14.1334L22.6875 9.44245L22.6919 9.43823L22.7252 9.40293C23.1164 8.98744 23.5963 8.25342 23.7645 7.48502C23.8384 7.14748 23.8527 6.81603 23.7739 6.49183C23.6953 6.16877 23.5222 5.8431 23.2071 5.51951L23.2073 5.51898L23.1444 5.4565C22.634 4.96201 22.192 4.76943 21.8352 4.7051C21.4717 4.63958 21.082 4.68713 20.6531 4.8549C19.7467 5.20951 18.8513 6.02732 18.1621 6.8464L18.044 6.98843C16.8929 8.38343 13.4622 12.8396 11.2197 15.7707L10.3136 16.9569L10.3106 16.9603L10.3097 16.9618L10.3069 16.9656L10.3067 16.9661L8.63616 19.1205L8.54385 19.2575C8.31703 19.6171 8.02561 20.2437 7.96304 20.8751C7.93157 21.193 7.95569 21.488 8.07321 21.759C8.1901 22.0286 8.40574 22.2891 8.78189 22.5285C9.17245 22.777 9.559 22.8922 9.9529 22.8972C10.3485 22.9023 10.7611 22.7962 11.202 22.5886C12.1072 22.1623 13.0244 21.3413 13.8157 20.38L13.8926 20.2862C14.7389 19.2377 15.5414 18.2419 16.1646 17.4676L16.2645 17.3434L18.4665 19.1159L18.3666 19.2401L16.0916 22.0622L16.0911 22.0629L16.0025 22.1714L16.0023 22.1719C15.0702 23.3051 13.8371 24.4721 12.4065 25.1459C10.8709 25.869 9.03587 26.0406 7.26409 24.9129C5.45768 23.7632 5.00503 22.0621 5.15007 20.5969C5.2848 19.2361 5.91976 18.0438 6.36282 17.4405L6.37247 17.4274L6.37525 17.4236L8.06629 15.242L8.96664 14.064C11.2015 11.1427 14.6768 6.62737 15.8744 5.17663L15.8749 5.17591L15.9981 5.02787L15.9988 5.02749C16.7923 4.08431 18.0584 2.83499 19.6237 2.22267C20.4307 1.907 21.3548 1.74608 22.3365 1.923C23.3249 2.10114 24.2598 2.60153 25.1113 3.42663L25.1122 3.42745L25.1795 3.49373L25.1806 3.4949ZM26.2146 8.02134C26.5134 6.65632 26.3022 5.06948 24.9545 3.72056L24.8881 3.65511C24.0753 2.86779 23.1966 2.40215 22.2799 2.23693C21.3682 2.0726 20.5044 2.22073 19.74 2.51971C18.2493 3.10285 17.025 4.30319 16.2433 5.23223L16.1201 5.38027C14.9269 6.82567 11.4566 11.334 9.22 14.2575L8.31935 15.4366L8.31852 15.4375L6.63732 17.6064L6.63717 17.607L6.62977 17.616L6.62046 17.6289C6.20135 18.1995 5.59534 19.3388 5.46764 20.6281C5.33193 21.9991 5.75041 23.5715 7.43536 24.6439C9.09362 25.6993 10.8087 25.5456 12.2704 24.8573C13.6414 24.2117 14.8388 23.0838 15.7555 21.9694L15.8438 21.8611C16.6462 20.8671 17.4094 19.9197 18.0179 19.1638L16.3131 17.7917L14.1407 20.4871L14.14 20.4875L14.063 20.5818L14.0625 20.5825C13.2559 21.5625 12.3032 22.423 11.3383 22.8775C10.8665 23.0997 10.4052 23.2219 9.94873 23.2161C9.49064 23.2102 9.04661 23.0754 8.61028 22.7977C8.19013 22.5303 7.92683 22.2238 7.78035 21.8859C7.63448 21.5495 7.61062 21.1959 7.64547 20.8439C7.72398 20.051 8.1237 19.2827 8.37838 18.9327L8.38116 18.9289L10.0542 16.7708L10.057 16.767L10.0588 16.7647L10.0596 16.7637L10.966 15.5774L10.9661 15.5769C13.2067 12.6483 16.642 8.1863 17.7979 6.78551L17.7984 6.78479L17.9171 6.64238L17.9176 6.64165C18.6186 5.80848 19.5561 4.94144 20.5371 4.55766C21.0087 4.37321 21.4585 4.31283 21.8916 4.39083C22.3196 4.46799 22.8175 4.69575 23.3664 5.22772L23.3677 5.22923L23.4341 5.29555L23.4358 5.29686C23.7866 5.65717 23.9907 6.03245 24.0841 6.41637C24.1772 6.79928 24.158 7.18167 24.0766 7.55337C23.8929 8.39235 23.3769 9.17616 22.9575 9.6217L22.9275 9.65336L19.3609 14.0843L21.0658 15.4568L24.5803 11.0905L24.5838 11.0863L24.5876 11.082C25.1943 10.425 25.9306 9.31836 26.2146 8.02134Z" fill="black"/>
<path d="M4.41093 10.6566C5.60794 9.0961 7.09802 8.53796 8.50074 8.61478C9.80359 8.68613 10.9037 9.29408 11.5497 9.83194L11.8005 10.0215L10.2137 11.9456L9.93976 11.7385L9.91507 11.7175C9.5504 11.4084 8.91707 11.074 8.2678 11.0384C7.73735 11.0094 7.08037 11.1651 6.40405 12.0273L6.33853 12.113C5.38126 13.3966 5.46124 14.2532 5.69682 14.8247C5.96002 15.4631 6.51616 15.9677 6.97641 16.2982L7.06698 16.362L7.07509 16.3675L7.0832 16.3734L13.1429 20.7004L20.2046 25.1479C20.7869 25.4287 22.028 25.615 22.9508 24.5626L23.0097 24.4935C23.6006 23.7847 23.6181 23.1968 23.5022 22.7398C23.371 22.2226 23.0414 21.8081 22.8602 21.6381L22.8261 21.6073C22.3638 21.2114 16.7144 16.9249 13.8973 14.7941L15.4608 12.8524C18.218 14.9379 23.9662 19.2973 24.4999 19.7544L24.5429 19.792C24.9939 20.1933 25.6394 20.9989 25.9113 22.0708C26.2076 23.2389 26.0371 24.6602 24.8638 26.0364L24.8072 26.1018C22.7536 28.4441 20.0149 27.8368 18.9471 27.2873L18.9012 27.2637L18.8579 27.2363L11.7165 22.7385L11.6875 22.7203L5.57149 18.3532C4.97847 17.9426 3.92525 17.1016 3.39118 15.8061C2.80705 14.3893 2.92918 12.6424 4.3541 10.7318L4.41093 10.6566Z" fill="black"/>
<path d="M4.28449 10.5596C5.51276 8.95836 7.05279 8.37579 8.50931 8.45551C9.85094 8.52899 10.98 9.1522 11.6459 9.70477L12.0295 9.99476L10.2394 12.1652L9.84352 11.8657L9.83968 11.863L9.83618 11.8601L9.81179 11.8391C9.46655 11.5465 8.86529 11.2308 8.25908 11.1975C8.01409 11.1841 7.74373 11.2133 7.45658 11.3437C7.16888 11.4743 6.85501 11.7111 6.52967 12.1259L6.52913 12.1257L6.46581 12.2081L6.46634 12.2083C5.99897 12.835 5.79324 13.3464 5.72801 13.7606C5.66313 14.1727 5.73555 14.5003 5.84426 14.764C6.09021 15.3605 6.61657 15.8432 7.06837 16.1678L7.15669 16.2303L7.1649 16.2359L7.16815 16.2376L7.17603 16.2434L13.2356 20.5704L20.2781 25.006C20.8236 25.267 21.9739 25.4344 22.8306 24.4573L22.8883 24.3899C23.1692 24.0526 23.3077 23.7516 23.365 23.4882C23.4224 23.2247 23.4008 22.9889 23.3476 22.7789C23.2263 22.3009 22.9191 21.9132 22.7532 21.7565L22.7191 21.7259C22.238 21.3165 16.6154 17.0502 13.8009 14.9215L13.6699 14.822L15.4336 12.6317L15.5571 12.7252C18.1383 14.6776 23.3578 18.6355 24.4437 19.5025L24.6037 19.6333L24.6049 19.6345L24.6479 19.672L24.6489 19.6728C25.118 20.0903 25.7847 20.9222 26.0661 22.0317C26.3746 23.2484 26.1931 24.7232 24.9853 26.1399L24.9845 26.1408L24.9276 26.2064L24.9271 26.2071C22.8056 28.6268 19.9761 27.9962 18.8743 27.4293L18.8281 27.4057L18.8221 27.4024L18.8158 27.3985L18.7725 27.3714L11.6314 22.8734L11.6025 22.8555L11.5948 22.8501L5.48052 18.4841C4.87968 18.0681 3.79566 17.2055 3.24383 15.8671C2.63535 14.3911 2.77262 12.5855 4.22605 10.6365L4.22686 10.6356L4.28367 10.5606L4.28449 10.5596ZM8.49199 8.77396C7.14312 8.7001 5.70315 9.23427 4.53746 10.754L4.53693 10.7538L4.48146 10.8281C3.08574 12.7 2.97886 14.3878 3.53855 15.7454C4.05478 16.9975 5.07697 17.8166 5.6622 18.2218L5.66439 18.2233L11.7772 22.5883L11.8012 22.6031L18.9429 27.1013L18.9787 27.1241L19.02 27.1455C20.0538 27.6775 22.7017 28.2613 24.6873 25.9966L24.7433 25.9319C25.8812 24.5966 26.0404 23.2293 25.7565 22.1101C25.4944 21.0765 24.8707 20.2975 24.438 19.912L24.396 19.8756C23.8747 19.4291 18.2924 15.1949 15.4873 13.0729L14.1244 14.7663C16.797 16.7882 21.7831 20.5713 22.7833 21.3671L22.9299 21.4864L22.933 21.4886L22.9672 21.5196L22.9695 21.5219C23.1664 21.7068 23.5162 22.1465 23.6567 22.7006C23.7194 22.9476 23.747 23.2344 23.677 23.5562C23.6069 23.8778 23.4414 24.225 23.1322 24.5958L23.1311 24.597L23.0721 24.666L23.0708 24.6677C22.0842 25.793 20.7563 25.591 20.1353 25.2916L20.1272 25.2878L20.1194 25.2829L13.0578 20.8355L13.054 20.8327L13.0503 20.8304L6.99051 16.503L6.98521 16.4993L6.977 16.4937L6.97501 16.4926L6.8845 16.4286L6.88324 16.428C6.41481 16.0916 5.82963 15.5651 5.54935 14.8853C5.4225 14.5775 5.33738 14.1909 5.41292 13.7111C5.48814 13.2332 5.72061 12.6743 6.21045 12.0175L6.21174 12.0158L6.27731 11.9303L6.27826 11.9288C6.62924 11.4813 6.98223 11.2086 7.3247 11.0531C7.66761 10.8975 7.99103 10.8635 8.2764 10.8791C8.92547 10.9147 9.55099 11.2273 9.94311 11.5345L10.0181 11.5959L10.0186 11.596L10.036 11.6111L10.1877 11.7261L11.5712 10.0485L11.4534 9.95937L11.4507 9.95693L11.4475 9.95468C10.8206 9.43271 9.75219 8.84298 8.49199 8.77396Z" fill="black"/>
<path d="M132.905 23.3515L129.459 17.9668H128.693L127.951 23.3515H123.619L125.989 6.40765H132.761C136.256 6.40765 138.744 8.27435 138.266 12.2471C137.835 15.3822 136.495 16.4352 134.173 17.536L138.242 23.3515H132.905ZM129.219 14.2813H131.732C133.049 14.2813 133.814 13.3001 133.934 12.3189C134.054 11.2898 133.551 10.4043 132.283 10.4043H129.77L129.219 14.2813Z" fill="black"/>
<path d="M115.677 10.4522L115.318 12.965H122.186L121.66 16.7702H114.791L114.432 19.307H121.899L121.348 23.3515H109.55L111.919 6.40765H123.718L123.143 10.4522H115.677Z" fill="black"/>
<path d="M93.3772 23.3515L95.7464 6.40765H99.8149L102.902 13.6351L103.859 17.0335L103.955 17.0095L103.907 14.0898L104.984 6.40765H109.244L106.875 23.3515H102.543L99.6473 16.6745L98.6422 13.2761L98.5465 13.3001L98.5943 16.5788L97.661 23.3515H93.3772Z" fill="black"/>
<path d="M93.5239 10.3086H88.9529L87.158 23.3515H82.8263L84.6212 10.3086H80.0502L80.6245 6.38371H94.0983L93.5239 10.3086Z" fill="black"/>
<path d="M73.5424 23.3515L70.0961 17.9668H69.3303L68.5884 23.3515H64.2567L66.626 6.40765H73.3988C76.8928 6.40765 79.3818 8.27435 78.9031 12.2471C78.4724 15.3822 77.1322 16.4352 74.8108 17.536L78.8792 23.3515H73.5424ZM69.8568 14.2813H72.3697C73.686 14.2813 74.4518 13.3001 74.5714 12.3189C74.6911 11.2898 74.1885 10.4043 72.9201 10.4043H70.4073L69.8568 14.2813Z" fill="black"/>
<path d="M59.4587 6.40765L63.1443 23.3515H58.5493L57.9031 19.9532H53.38L51.8723 23.3515H47.2773L55.5578 6.40765H59.4587ZM54.8877 16.148H57.4245L56.9219 11.1941H56.7544L54.8877 16.148Z" fill="black"/>
<path d="M35.2298 23.3515L37.5991 6.40765H44.3718C48.5121 6.40765 50.0677 9.44702 49.7326 12.5103C49.3736 15.7172 47.0044 18.3976 42.912 18.3976H40.2077L39.5136 23.3515H35.2298ZM40.7342 14.5924H43.2231C44.5633 14.6163 45.3291 13.5394 45.4727 12.3907C45.6163 11.2659 45.0659 10.4043 43.8214 10.4043H41.3325L40.7342 14.5924Z" fill="black"/>
</svg>
