<svg width="22" height="22" viewBox="0 0 22 22" fill="none" xmlns="http://www.w3.org/2000/svg">
<path d="M12.375 15.4688C12.375 15.7407 12.2944 16.0065 12.1433 16.2327C11.9922 16.4588 11.7774 16.635 11.5262 16.7391C11.2749 16.8432 10.9985 16.8704 10.7318 16.8173C10.465 16.7643 10.22 16.6333 10.0277 16.441C9.83543 16.2487 9.70448 16.0037 9.65142 15.737C9.59837 15.4703 9.6256 15.1938 9.72967 14.9426C9.83374 14.6913 10.01 14.4766 10.2361 14.3255C10.4622 14.1744 10.7281 14.0938 11 14.0938C11.3647 14.0938 11.7144 14.2386 11.9723 14.4965C12.2301 14.7543 12.375 15.1041 12.375 15.4688ZM20.2813 11C20.2813 12.8357 19.7369 14.6301 18.7171 16.1564C17.6972 17.6827 16.2477 18.8723 14.5518 19.5748C12.8559 20.2772 10.9897 20.461 9.18932 20.1029C7.38894 19.7448 5.73518 18.8608 4.43717 17.5628C3.13916 16.2648 2.25521 14.6111 1.89709 12.8107C1.53897 11.0103 1.72277 9.14415 2.42525 7.44822C3.12772 5.75229 4.31732 4.30276 5.84362 3.28292C7.36991 2.26309 9.16435 1.71875 11 1.71875C13.4607 1.72148 15.8198 2.7002 17.5598 4.44018C19.2998 6.18016 20.2785 8.5393 20.2813 11ZM18.2188 11C18.2188 9.57227 17.7954 8.17659 17.0022 6.98948C16.209 5.80236 15.0816 4.87711 13.7625 4.33074C12.4434 3.78437 10.992 3.64142 9.5917 3.91996C8.1914 4.19849 6.90514 4.88601 5.89558 5.89557C4.88602 6.90513 4.1985 8.19139 3.91996 9.59169C3.64142 10.992 3.78438 12.4434 4.33075 13.7625C4.87712 15.0815 5.80236 16.209 6.98948 17.0022C8.1766 17.7954 9.57227 18.2188 11 18.2188C12.9139 18.2167 14.7488 17.4555 16.1022 16.1022C17.4555 14.7488 18.2167 12.9139 18.2188 11ZM11 5.5C8.91516 5.5 7.21875 7.04172 7.21875 8.9375V9.28125C7.21875 9.55475 7.3274 9.81706 7.5208 10.0105C7.7142 10.2039 7.9765 10.3125 8.25 10.3125C8.52351 10.3125 8.78581 10.2039 8.97921 10.0105C9.17261 9.81706 9.28125 9.55475 9.28125 9.28125V8.9375C9.28125 8.17953 10.0547 7.5625 11 7.5625C11.9453 7.5625 12.7188 8.17953 12.7188 8.9375C12.7188 9.69547 11.9453 10.3125 11 10.3125C10.7265 10.3125 10.4642 10.4211 10.2708 10.6145C10.0774 10.8079 9.96875 11.0702 9.96875 11.3438V12.0312C9.96814 12.286 10.0619 12.532 10.2319 12.7218C10.4018 12.9116 10.6361 13.0317 10.8894 13.059C11.1427 13.0864 11.3972 13.019 11.6037 12.8698C11.8103 12.7206 11.9543 12.5003 12.0081 12.2512C13.6048 11.8491 14.7813 10.5162 14.7813 8.9375C14.7813 7.04172 13.0848 5.5 11 5.5Z" fill="#72A7FF"/>
</svg>
