<svg width="22" height="22" viewBox="0 0 22 22" fill="none" xmlns="http://www.w3.org/2000/svg">
<path d="M10.2634 2.24097C12.5022 2.05533 14.7271 2.73458 16.4802 4.1394L16.8298 4.41968L17.1472 4.10327L18.8737 2.37476C18.9231 2.32535 18.982 2.28631 19.0466 2.25952C19.1112 2.23276 19.1807 2.21853 19.2507 2.21851C19.3207 2.21851 19.3901 2.23273 19.4548 2.25952C19.5194 2.28629 19.5782 2.32531 19.6276 2.37476C19.6771 2.42419 19.7161 2.48304 19.7429 2.54761C19.7696 2.61228 19.7839 2.68171 19.7839 2.75171C19.7839 2.82171 19.7696 2.89114 19.7429 2.95581C19.7161 3.02038 19.6771 3.07923 19.6276 3.12866L11.3776 11.3787C11.3282 11.4281 11.2694 11.4671 11.2048 11.4939C11.1401 11.5207 11.0707 11.5349 11.0007 11.5349C10.9307 11.5349 10.8612 11.5207 10.7966 11.4939C10.732 11.4671 10.6731 11.4281 10.6237 11.3787C10.5743 11.3292 10.5353 11.2704 10.5085 11.2058C10.4817 11.1411 10.4675 11.0717 10.4675 11.0017C10.4675 10.9317 10.4817 10.8623 10.5085 10.7976C10.5353 10.733 10.5743 10.6742 10.6237 10.6248L13.1862 8.06226L12.5485 7.75757C11.8733 7.43496 11.1137 7.33113 10.3766 7.46069C9.63979 7.59029 8.96184 7.94684 8.43719 8.48022C7.91244 9.01377 7.56718 9.69815 7.44989 10.4373C7.33266 11.1763 7.44913 11.9335 7.7829 12.6033C8.1167 13.273 8.65149 13.8222 9.31219 14.1736C9.97282 14.5248 10.7267 14.6609 11.4684 14.5632C12.2104 14.4655 12.9036 14.1382 13.4509 13.6277C13.9979 13.1173 14.3722 12.4488 14.5212 11.7156V11.7146C14.549 11.5767 14.6306 11.4556 14.7477 11.3777C14.8651 11.2997 15.009 11.2708 15.1472 11.2986C15.2853 11.3264 15.4071 11.4088 15.485 11.5261C15.5626 11.6431 15.5906 11.786 15.5632 11.9236C15.3648 12.9007 14.8575 13.7892 14.1169 14.4568C13.3763 15.1241 12.4412 15.5365 11.4489 15.6326C10.4565 15.7287 9.45918 15.503 8.60419 14.99C7.74929 14.477 7.08107 13.7029 6.69891 12.782C6.31695 11.8613 6.24074 10.8422 6.48114 9.87476C6.72165 8.9071 7.26695 8.04182 8.03583 7.40698C8.80465 6.77232 9.75709 6.40141 10.7526 6.34839C11.7482 6.29543 12.7342 6.56352 13.5661 7.11304L13.9059 7.33667L14.195 7.04956L15.6755 5.57397L16.0856 5.16577L15.6218 4.81909C14.1347 3.70852 12.2972 3.17144 10.446 3.30542C8.59461 3.43951 6.85334 4.23612 5.54169 5.54956C4.23003 6.863 3.43499 8.60523 3.30341 10.4568C3.17192 12.3082 3.71229 14.145 4.82489 15.6306C5.93752 17.1162 7.54839 18.151 9.362 18.5457C11.1758 18.9402 13.0715 18.6683 14.7009 17.7791C16.3302 16.8898 17.5846 15.4428 18.2341 13.7039C18.8834 11.9651 18.8844 10.0507 18.237 8.31128L18.236 8.30835L18.2087 8.20776C18.2029 8.17334 18.2007 8.13833 18.2018 8.10327C18.2041 8.03328 18.2198 7.96391 18.2487 7.90015C18.2777 7.83636 18.3195 7.77896 18.3708 7.7312C18.422 7.68353 18.482 7.6462 18.5475 7.62183C18.6132 7.59745 18.6836 7.58686 18.7536 7.5896C18.8235 7.59234 18.8923 7.60812 18.9557 7.63745C19.0192 7.66684 19.0764 7.709 19.1237 7.7605C19.1689 7.80967 19.2043 7.86719 19.2282 7.92944L19.2331 7.94312C19.9325 9.82173 19.9688 11.8833 19.3347 13.7849C18.7004 15.6867 17.4339 17.3144 15.7468 18.3972C14.0597 19.4799 12.0532 19.9525 10.0602 19.7371C8.06721 19.5215 6.20733 18.631 4.79071 17.2126L4.78973 17.2117L4.49969 16.908C3.08674 15.3582 2.27204 13.3495 2.21161 11.2439C2.14716 8.99821 2.9455 6.81311 4.44305 5.13843C5.9408 3.4637 8.0243 2.42672 10.2634 2.24097Z" fill="#72A7FF" stroke="#72A7FF"/>
</svg>
