<svg width="20" height="20" viewBox="0 0 20 20" fill="none" xmlns="http://www.w3.org/2000/svg">
<path d="M0 10C0 4.47715 4.47715 0 10 0C15.5228 0 20 4.47715 20 10C20 15.5228 15.5228 20 10 20C4.47715 20 0 15.5228 0 10Z" fill="#349DF0"/>
<path d="M10.0459 7.85498L10.0703 8.25146L9.66384 8.20292C8.18441 8.01681 6.89194 7.38567 5.79456 6.32568L5.25806 5.79974L5.11987 6.18813C4.82724 7.05392 5.0142 7.96826 5.62385 8.58322C5.949 8.92306 5.87584 8.97161 5.31496 8.76932C5.11987 8.70459 4.94917 8.65604 4.93291 8.68031C4.87601 8.73696 5.0711 9.47328 5.22554 9.76458C5.43689 10.1692 5.86772 10.5656 6.33918 10.8003L6.73749 10.9864L6.26602 10.9945C5.81081 10.9945 5.79456 11.0026 5.84333 11.1725C6.0059 11.6984 6.64808 12.2568 7.3634 12.4995L7.86739 12.6694L7.42844 12.9284C6.77814 13.3006 6.01403 13.5109 5.24993 13.5271C4.88414 13.5352 4.58337 13.5676 4.58337 13.5919C4.58337 13.6728 5.57508 14.1259 6.15222 14.3039C7.88364 14.8299 9.94022 14.6033 11.4847 13.7051C12.5821 13.0659 13.6794 11.7955 14.1916 10.5656C14.4679 9.91022 14.7443 8.71268 14.7443 8.13818C14.7443 7.76597 14.7687 7.71742 15.2239 7.27239C15.4922 7.01346 15.7441 6.73026 15.7929 6.64934C15.8742 6.49561 15.8661 6.49561 15.4515 6.63316C14.7606 6.87591 14.663 6.84354 15.0044 6.47942C15.2564 6.22049 15.5572 5.75119 15.5572 5.61363C15.5572 5.58936 15.4352 5.62981 15.2971 5.70264C15.1507 5.78355 14.8256 5.90493 14.5817 5.97775L14.1428 6.11531L13.7445 5.84829C13.525 5.70264 13.2161 5.54081 13.0535 5.49226C12.639 5.37898 12.0049 5.39516 11.631 5.52462C10.6149 5.88874 9.97273 6.82736 10.0459 7.85498Z" fill="white"/>
</svg>
