<svg width="20" height="20" viewBox="0 0 20 20" fill="none" xmlns="http://www.w3.org/2000/svg">
<path d="M0 10C0 4.47715 4.47715 0 10 0C15.5228 0 20 4.47715 20 10C20 15.5228 15.5228 20 10 20C4.47715 20 0 15.5228 0 10Z" fill="#FF0000"/>
<path d="M15.1104 7.53067C14.9877 7.05942 14.6263 6.68833 14.1673 6.56238C13.3355 6.3335 9.99996 6.3335 9.99996 6.3335C9.99996 6.3335 6.66438 6.3335 5.83257 6.56238C5.3736 6.68833 5.01214 7.05942 4.88947 7.53067C4.66663 8.38476 4.66663 10.1668 4.66663 10.1668C4.66663 10.1668 4.66663 11.9488 4.88947 12.803C5.01214 13.2742 5.3736 13.6453 5.83257 13.7713C6.66438 14.0002 9.99996 14.0002 9.99996 14.0002C9.99996 14.0002 13.3355 14.0002 14.1673 13.7713C14.6263 13.6453 14.9877 13.2742 15.1104 12.803C15.3333 11.9488 15.3333 10.1668 15.3333 10.1668C15.3333 10.1668 15.3333 8.38476 15.1104 7.53067" fill="white"/>
<path d="M9 11.9998V8.6665L11.6667 10.3332L9 11.9998Z" fill="#FF0000"/>
</svg>
