<svg xmlns="http://www.w3.org/2000/svg" width="38" height="38" fill="none" viewBox="0 0 38 38"><g clip-path="url(#a)"><path fill="#eef3f7" d="m13.481 30.078-2.606-4.018 15.03-.243 1.334 4.261z"/><path fill="#d9d9d9" d="M29.543 19.545c0-.807.651-1.46 1.454-1.46.804 0 1.455.653 1.455 1.46v2.435c0 .808-.651 1.462-1.454 1.462a1.46 1.46 0 0 1-1.455-1.462zm-24.363 0c0-.807.65-1.46 1.454-1.46s1.455.653 1.455 1.46v2.435c0 .808-.651 1.462-1.455 1.462A1.46 1.46 0 0 1 5.18 21.98z"/><path fill="#e6e8ea" d="M6.512 18.449a1.58 1.58 0 0 1 1.575-1.583c.87 0 1.576.708 1.576 1.582v4.627a1.58 1.58 0 0 1-1.576 1.583 1.58 1.58 0 0 1-1.575-1.583zm21.332 0a1.58 1.58 0 0 1 1.575-1.583c.87 0 1.576.708 1.576 1.582v4.627a1.58 1.58 0 0 1-1.576 1.583 1.58 1.58 0 0 1-1.575-1.583z"/><path fill="#85d6ff" d="M13.567 1.89c-4.218 0-2.768 7.509-1.515 11.263l5.515-1.4c.424-3.288.218-9.863-4-9.863"/><path fill="#85d6ff" d="M18.745 11.51c-3.848-.031-11.363 1.883-10.879 9.801-.04 2.212 1.455 6.612 7.758 6.515h6.242c6.303.097 7.798-4.303 7.758-6.515.483-7.918-7.031-9.832-10.88-9.802"/><path fill="#fffdfc" d="M18.759 13.215c-3.209-.026-9.476 1.56-9.072 8.118-.034 1.832 1.213 5.476 6.469 5.395h5.206c5.256.081 6.503-3.563 6.47-5.395.402-6.558-5.864-8.144-9.073-8.118"/><path fill="#ffd2d0" d="M13.729 4.143c-2.376-.049-1.192 5.418-.303 8.158l2.727-.853c.097-5.893-1.576-7.326-2.424-7.305"/><path fill="#85d6ff" d="M23.878 1.89c4.218 0 2.768 7.509 1.515 11.263l-5.515-1.4c-.424-3.288-.218-9.863 4-9.863"/><path fill="#ffd2d0" d="M23.959 4.143c2.375-.049 1.191 5.418.303 8.158l-2.728-.853c-.096-5.893 1.576-7.326 2.425-7.305"/><path fill="#84d6ff" d="M30.252 32.555c-.554-.07-1.11-.134-1.662-.215a.3.3 0 0 1-.089-.03c-.107-.06-.128-.198-.13-.357-.175-.601-.336-1.174-.529-1.736-.12-.351-.288-.686-.435-1.028l-.046.017.046.188c.08.324.167.646.238.973.124.566.238 1.134.355 1.702q.016.045.036.09c.035.083.071.165.08.25.078.679.143 1.359.212 2.075l.007.196.032 1.416s0 .003-.011.004c-.017.012-.023.024-.029.036 0 0 0 .003-.01.004a.1.1 0 0 0-.03.037s0 .002-.014.002a.3.3 0 0 0-.066.078s0 .003-.017 0c-.157.04-.294.102-.437.123-.71.1-1.422.201-2.135.28a48 48 0 0 1-1.949.167c-.863.06-1.727.117-2.592.152-.587.023-1.176.008-1.764.006-.523-.001-.854-.334-.854-.854 0-.718.03-1.438-.01-2.155-.03-.552.143-.885.677-1.09.596-.23 1.16-.545 1.738-.824.848-.41 1.697-.817 2.542-1.234.266-.131.335-.35.215-.624-.054-.122-.134-.232-.199-.35l-.289-.527c.123 0 .196-.002.269 0q.68.019 1.36.041c.16.006.278-.056.314-.218.137-.626.27-1.253.413-1.89.088-.045.17-.075.245-.117q.57-.327 1.139-.656c.05.048.094.128.151.14.685.142 1.374.266 2.06.412q.642.134 1.274.32c.392.116.773.27 1.175.43.053.031.09.04.127.047 0 0-.002 0 .004.012.176.096.346.182.517.283-.006.057-.007.098-.019.135-.267.882-.528 1.765-.807 2.643-.18.565-.386 1.122-.597 1.685-.18-.012-.343-.025-.506-.039m-10.644 1.916c.052-.409-.193-.699-.524-.618a.45.45 0 0 0-.356.445.47.47 0 0 0 .34.463c.2.057.386-.037.54-.29"/><path fill="#84d6ff" d="M28.501 32.31c-.107-.06-.128-.198-.13-.357-.175-.601-.336-1.174-.529-1.736-.12-.351-.288-.686-.435-1.028l-.046.017.046.188c.08.324.167.646.238.973.124.566.238 1.134.355 1.702q.016.045.036.09zM5.137 28.128c.143-.082.28-.182.432-.242.808-.322 1.624-.616 2.484-.773.365-.067.721-.18 1.085-.254.431-.086.866-.153 1.299-.228.056-.01.157.02.1-.12.48.242.948.501 1.417.778.014.088.025.16.04.233.114.522.226 1.045.345 1.566.035.152.12.28.297.278.3-.004.6-.024.9-.03.229-.006.459-.002.689-.002 0 .039.004.054-.001.064-.118.226-.24.45-.356.676-.23.45-.176.613.284.837.44.213.882.417 1.322.629l2.33 1.126c.147.071.297.136.467.214-.215.244-.221.51-.22.783.004.866 0 1.733.004 2.6a.7.7 0 0 0 .042.294c.083.183.029.282-.179.371a.7.7 0 0 1-.291.054 445 445 0 0 1-3.761-.122c-.372-.014-.744-.05-1.115-.088a78 78 0 0 1-1.685-.192 24 24 0 0 1-1.342-.194c-.21-.039-.41-.137-.616-.208 0 0-.003 0 0-.016-.158-.27-.126-.545-.097-.827.043-.404.063-.81.093-1.216.002-.14.004-.28.033-.44.046-.151.07-.282.086-.415.144-1.183.371-2.35.667-3.504.058-.224.123-.447.184-.67-.544 1.008-.91 2.079-1.17 3.188-.178.049-.353.116-.534.141-.396.055-.794.088-1.228.131-.212.014-.389.028-.567.026-.441-1.423-.88-2.832-1.323-4.24-.024-.074-.076-.139-.115-.208m9.206 4.16c.005-.148.017-.295.013-.442-.003-.131-.077-.21-.213-.218-.206-.014-.412-.03-.618-.039l-1.959-.08c-.547-.023-.567-.005-.578.536 0 .047.002.094 0 .179.003.386-.022.774.12 1.149.246.648.7 1.044 1.387 1.105.673.06 1.202-.222 1.555-.811.25-.42.286-.882.293-1.38"/><path fill="#3dbdf6" d="M22.65 28.12c.833-.149 1.652-.353 2.434-.685.123-.052.245-.106.381-.162q-.181.937-.39 1.877c-.035.162-.153.224-.314.218q-.68-.022-1.36-.04c-.072-.003-.145-.001-.268-.001.108.197.198.363.29.528.064.117.144.227.198.349.12.274.05.492-.215.624-.845.417-1.694.824-2.542 1.234-.578.279-1.142.594-1.738.824-.534.205-.708.538-.677 1.09.04.717.01 1.437.01 2.155 0 .52.331.853.854.854.588.002 1.177.017 1.764-.006a89 89 0 0 0 2.592-.152 49 49 0 0 0 1.949-.167c.713-.079 1.424-.18 2.135-.28.143-.02.28-.084.436-.124-.083.053-.177.134-.28.147-.23.029-.276.179-.307.367-.05.299-.11.595-.169.892-.003.016-.027.028-.056.03.021-.206.058-.403.1-.625a64 64 0 0 1-17.52.011l.113.673c-.052-.166-.115-.33-.155-.498-.04-.17-.057-.346-.089-.518-.04-.21-.184-.303-.377-.36-.117-.036-.222-.111-.336-.182.202.057.402.154.613.193.444.082.893.139 1.342.195q.841.105 1.685.191c.37.038.743.074 1.115.088 1.253.048 2.507.086 3.76.123a.7.7 0 0 0 .292-.055c.208-.089.262-.188.18-.37a.7.7 0 0 1-.043-.296c-.003-.866 0-1.733-.004-2.6-.001-.272.005-.538.22-.782-.17-.078-.32-.143-.468-.214l-2.329-1.126c-.44-.211-.883-.415-1.322-.629-.46-.224-.514-.386-.284-.837.116-.226.238-.45.356-.675.005-.01 0-.026 0-.065-.23 0-.46-.004-.689.002-.3.007-.6.027-.9.03-.176.002-.261-.125-.296-.277-.12-.522-.23-1.045-.344-1.567a4 4 0 0 1-.04-.233c.892.372 1.819.648 2.796.839.151.184.275.358.416.517.45.501.906.997 1.365 1.507.349.402.691.793 1.04 1.196.378.423.75.832 1.155 1.28.376-.451.74-.89 1.118-1.33.347-.376.681-.751 1.026-1.134.313-.346.618-.68.915-1.023.291-.336.575-.68.861-1.02"/><path fill="#eef3f7" d="M30.77 32.592c.194-.561.4-1.118.58-1.684.278-.878.54-1.761.807-2.642.011-.038.012-.079.034-.135a.24.24 0 0 1 .102-.01s.002-.003-.003.012c.065.047.135.078.204.11l-.005.012c.038.032.082.05.126.067l-.004.012c.052.046.109.077.165.108l-.001.01c.013.019.028.024.042.03l.002.01c.12.1.239.188.357.274l-.005.013c.01.02.028.023.045.027l-.005.013c.01.02.028.023.045.027l-.005.013c.01.02.027.024.045.028 0 0 0-.003-.012.009a.4.4 0 0 0 .093.11l-.002.012c.013.02.027.024.042.03 0 0 .001-.003-.008.008a.2.2 0 0 0 .043.071.2.2 0 0 0 .029.053c.027.022.042.026.056.03 0 0 .001-.004-.009.01.064.14.137.266.21.391l-.004.014c.037.312.114.607.112.901-.002.245-.096.49-.15.734 0 0 .003.001-.012.002a6 6 0 0 0-.228.401l-.013-.001a1 1 0 0 0-.108.162l-.013-.005c-.02.01-.023.028-.027.045l-.013-.005c-.019.01-.023.028-.027.045l-.013-.005c-.02.01-.024.028-.028.045l-.013-.005c-.02.01-.023.028-.026.046 0 0 .003 0-.01-.011-.06.036-.105.084-.151.131l-.01-.01c-.057.024-.103.06-.149.094 0 0 0-.002-.011-.002a.1.1 0 0 0-.03.04l-.013-.005c-.233.091-.45.19-.669.288 0 0 .003 0-.013-.005-.072.011-.13.03-.187.047 0 0 0-.002-.016-.005-.393.014-.77.03-1.146.045M5.136 28.127c.04.07.093.134.117.208.442 1.408.882 2.817 1.304 4.243-.392.002-.768-.014-1.143-.03 0 0 0 .003-.006-.01a.7.7 0 0 0-.155-.03s0 .003-.005-.01c-.229-.1-.452-.186-.676-.272l-.002-.012a.2.2 0 0 0-.077-.03s-.002.004.001-.012a6 6 0 0 0-.403-.31s0 .003.012-.01c-.309-.388-.537-.813-.548-1.313-.006-.296.061-.593.096-.89l.012-.004c.046-.094.077-.186.11-.277 0 0-.004-.002.011 0 .086-.12.158-.241.229-.363 0 0-.003 0 .011.006.099-.095.183-.195.267-.296.122-.105.243-.21.394-.31.128-.065.227-.136.326-.207 0 0 0-.002.014.003a.5.5 0 0 0 .109-.071z"/><path fill="#3dbdf6" d="M8.918 32.274c.243-1.105.61-2.176 1.155-3.184-.062.223-.127.446-.184.67a27 27 0 0 0-.668 3.504c-.016.133-.04.264-.073.406.04-.483.091-.976.144-1.477zM28 32.159c-.12-.55-.233-1.228-.357-1.794-.07-.326-.158-.649-.238-.973l-.046-.188.046-.017c.147.342.315.677.435 1.028.193.562.354 1.135.528 1.72-.052-.18-.225-.132-.363-.154 0 .079-.002.274-.005.378"/><path fill="#3dbdf6" d="M28.368 31.935c-.052-.18-.225-.132-.363-.154 0 .079-.002.274-.005.378l.5.15zM9.086 34.127c-.016.397-.036.803-.08 1.207-.029.282-.06.557.099.826-.268-.134-.207-.393-.2-.622.01-.268.046-.536.078-.803a7 7 0 0 1 .103-.608m19.298 1.963c-.025-.467-.036-.94-.047-1.411-.001-.054-.004-.107-.005-.179.04.103.102.222.112.346q.04.473.04.949c0 .097-.055.194-.1.296"/><path fill="#1394fa" d="M32.152 32.509q.303-.15.652-.29-.302.149-.652.29m.144-4.403c-.026.012-.055.01-.1.008a8 8 0 0 1-.532-.268q.308.11.632.26M4.09 31.876q.201.126.402.296a4 4 0 0 1-.402-.296m29.649-2.281a3 3 0 0 1-.212-.375q.112.165.212.375m-.563-.842a4 4 0 0 1-.356-.26q.174.11.356.26m-29.418.617q-.025.133-.094.276.026-.132.094-.275m28.738-1.144a.6.6 0 0 1-.203-.094.6.6 0 0 1 .203.094m.539 3.879a.5.5 0 0 1 .136-.134.5.5 0 0 1-.136.134m-.258-3.678a.5.5 0 0 1-.164-.094.5.5 0 0 1 .163.094m.576 3.392a.5.5 0 0 1 .094-.16.5.5 0 0 1-.094.16m-.481.368a.4.4 0 0 1 .134-.095.4.4 0 0 1-.134.095m-.258-3.88a.23.23 0 0 1-.125-.053.23.23 0 0 1 .125.053m-.663 4.244a1 1 0 0 1 .17-.048 1 1 0 0 1-.17.048m1.433-3.56a.24.24 0 0 1-.094-.097c.039.02.067.052.094.097m-28.125 3.53a.3.3 0 0 1 .15.014.3.3 0 0 1-.15-.014"/><path fill="#3dbdf6" d="M28.219 36.256q.004-.04.05-.079-.005.04-.05.08"/><path fill="#1394fa" d="M33.461 29.114q-.031-.01-.047-.057.032.01.047.057M4.492 32.198q.034-.014.076.015-.034.013-.076-.015m28.696-.214q-.013-.027.014-.047.013.028-.014.047m-.362.24q-.009-.017.02-.038.007.019-.02.038m.404-.28q-.012-.027.016-.046.012.026-.016.046m.04-.04q-.013-.027.014-.046.013.026-.015.046m.04-.042c-.008-.016-.004-.034.014-.046q.013.027-.014.046"/><path fill="#3dbdf6" d="M28.338 36.133q-.008-.015.016-.034.007.015-.017.034m-.043.041q-.006-.015.017-.034.007.015-.017.034"/><path fill="#1394fa" d="M32.819 28.47q-.02.009-.042-.018.02-.009.042.018m.403.323q-.027.013-.046-.014.026-.013.046.014m.031.041q-.027.013-.046-.015.027-.013.046.015m.043.04q-.027.013-.045-.015.027-.013.045.015m.121.161q-.021.011-.041-.017.02-.01.04.017m.123.16q-.018.015-.047-.01.018-.014.047.01"/><path fill="#262524" d="M19.598 34.484c-.145.24-.331.333-.532.276a.47.47 0 0 1-.34-.462.45.45 0 0 1 .357-.446c.33-.08.576.21.515.632"/><path fill="#3ebef6" d="M14.322 32.311c.015.473-.02.936-.271 1.355-.353.59-.882.871-1.555.812-.687-.061-1.141-.458-1.387-1.106-.142-.375-.116-.763-.1-1.169 1.118.023 2.215.066 3.313.108"/><path fill="#faf7f2" d="M14.332 32.299c-1.109-.03-2.206-.073-3.322-.115a.3.3 0 0 1-.022-.139c.011-.541.031-.559.578-.536l1.959.08c.206.01.412.026.618.039.136.008.21.087.213.218.004.147-.008.293-.024.453"/><path fill="#262524" d="m19.834 31.3-1.105 1.328a60 60 0 0 1-1.153-1.297c.095-.47.196-.91.289-1.354a.27.27 0 0 0-.031-.194c-.159-.214-.33-.419-.49-.638.198-.23.39-.449.597-.668a1 1 0 0 0 .113-.074c.019-.002.037-.005.08.007.11.007.195 0 .281-.007a.4.4 0 0 1 .12.008c.22.007.41 0 .602-.008.07-.003.14-.005.23.002.02.01.035.014.035.014l.015-.01s.016-.005.03.007c.2.228.387.443.57.663.023.028.018.08.015.129-.16.202-.315.394-.459.594a.26.26 0 0 0-.04.186c.095.439.2.875.301 1.312"/><path fill="#eef3f7" d="M17.924 28.478c-.192.218-.384.437-.59.679-.197.232-.383.439-.562.651-.089.105-.164.22-.246.331-.453-.498-.91-.993-1.36-1.495-.141-.158-.264-.333-.4-.513.502.05 1.009.12 1.516.177.238.027.478.041.717.05.33.01.66.01.992.034-.021.04-.044.063-.067.086m2.117.722c-.008-.042-.003-.094-.026-.122-.182-.22-.37-.435-.562-.664.723-.055 1.452-.087 2.18-.142.328-.025.653-.096.997-.15a28 28 0 0 1-1.77 2.031c-.245-.3-.468-.602-.696-.9-.024-.03-.081-.036-.123-.054"/><path fill="#000" d="M19.119 28.4q-.261.017-.568.014a8 8 0 0 1 .568-.014m-.72 0q-.105.017-.25.013c.07-.012.151-.013.25-.012m-.461.077a.2.2 0 0 1 .063-.076c.017-.006.023-.004.04 0a.3.3 0 0 1-.104.076m1.47-.074c.008.005-.006.015-.006.015s-.015-.005-.018-.01c-.003-.006.015-.009.024-.005"/><path fill="#dee4e9" d="M16.531 30.151c.076-.122.152-.238.24-.343.18-.212.365-.419.556-.64.174.197.345.401.503.615.036.048.045.133.032.195-.093.442-.194.883-.295 1.341a50 50 0 0 1-1.036-1.168m3.504-.944c.052.01.109.016.133.047.228.297.451.599.686.907q-.485.574-1.005 1.136a31 31 0 0 1-.314-1.309.26.26 0 0 1 .04-.186c.144-.2.299-.392.46-.595"/><path fill="#ffd2d0" d="M13.78 22.46c-.298.425-.726.606-1.193.69-.714.13-1.336-.069-1.815-.628-.35-.407-.351-1.05.02-1.495.674-.808 2.113-.827 2.84-.085.415.423.492.988.147 1.518m13.211-1.152c.23.592.035 1.147-.466 1.515-.702.514-1.782.478-2.444-.071-.623-.517-.603-1.403.041-1.935.696-.575 2.02-.568 2.633.15.086.102.154.218.236.341"/><path fill="#272625" d="M16.155 19.362c0 .774-.57 1.4-1.273 1.4s-1.273-.626-1.273-1.4.57-1.4 1.273-1.4 1.273.627 1.273 1.4m8.004 0c0 .774-.57 1.4-1.273 1.4s-1.273-.626-1.273-1.4.57-1.4 1.273-1.4 1.273.627 1.273 1.4"/><path fill="#262524" d="M20.463 21.292a.363.363 0 0 1 .505-.102.366.366 0 0 1 .1.507c-.241.364-.917 1.137-2.242 1.137-.645 0-1.128-.166-1.494-.4a2.8 2.8 0 0 1-.738-.723.366.366 0 0 1 .077-.51.36.36 0 0 1 .509.077c.133.18.296.381.544.54.243.156.588.285 1.102.285.995 0 1.475-.567 1.637-.811"/></g><defs><clipPath id="a"><path fill="#fff" d="M4 2h30v34H4z"/></clipPath></defs></svg>