<svg xmlns="http://www.w3.org/2000/svg" width="38" height="38" fill="none" viewBox="0 0 38 38"><path fill="#fddabf" d="M23.506 26.81c-.534.301-.966-.035-1.5-.26-.672-.703-1.257-1.38-1.865-2.036-.402-.435-.833-.843-1.26-1.255-.249-.24-.592-.352-.789-.04-.126.2-.034.552.004.83.014.097.16.177.246.264.652.649 1.275 1.33 1.963 1.937.673.594.982 1.28.842 2.164-.71.291-1.273.037-1.807-.485-.036-.018-.035-.013-.048-.04a.3.3 0 0 0-.14-.122c-1.002-1.051-1.951-2.1-2.958-3.09-.163-.16-.66-.187-.862-.059-.348.22-.183.572.076.831.58.581 1.213 1.12 1.73 1.75.53.646 1.433 1.13 1.179 2.201-.509.233-.853-.056-1.172-.38-1.779-1.805-3.558-3.608-5.327-5.421-1.082-1.11-2.275-2.047-3.805-2.605.945-2.85 1.928-5.65 2.912-8.45 1.195.363 2.398.698 3.665.612.71-.048 1.417-.16 2.164-.206-.657.7-1.404 1.318-2.029 2.041-.319.37-.557.917-.59 1.4-.082 1.22-.027 2.45-.027 3.675v1.253c.558-.117 1.025-.166 1.458-.314 1.223-.416 2.226-1.369 2.27-2.87.03-1.008.747-1.606 1.563-2.14.535.556 1.03 1.07 1.503 1.624-.045.29-.173.603-.068.779.225.377.558.696.869 1.017 1.247 1.292 2.505 2.573 3.752 3.864.386.4.599.863.467 1.438-.019.08.045.177.07.266-.507-.044-1.013-.087-1.601-.16-1.092-1.1-2.09-2.185-3.133-3.227-.121-.121-.548-.1-.72.019-.45.308-.168.645.097.915.762.775 1.524 1.553 2.314 2.3.595.562.848 1.187.557 1.98"/><path fill="#fdc4a4" d="M20.925 17.58c-.495-.515-.99-1.03-1.527-1.586-.815.535-1.532 1.133-1.561 2.14-.045 1.502-1.049 2.455-2.271 2.871-.433.148-.9.197-1.458.314v-1.253c0-1.225-.055-2.455.028-3.675.032-.483.27-1.03.59-1.4.624-.723 1.371-1.341 2.082-2.042.235-.22.453-.403.677-.581 1.24-.989 2.62-1.173 4.114-.706 1.544.482 3.077 1.03 4.818.918.457 1.114.845 2.19 1.213 3.271.571 1.68 1.128 3.364 1.691 5.046-.51.252-1 .565-1.535.742-.585.192-1.21.259-1.901.346-.387-.23-.733-.381-.987-.627-1.145-1.104-2.26-2.239-3.395-3.353-.168-.166-.384-.284-.578-.425"/><path fill="#3d9cfa" d="M10.928 12.5c-.987 2.843-1.97 5.643-2.958 8.487-.413 1.033-.413 1.033-1.52 1.033H3.378v-.727c0-3.456.014-6.912-.014-10.368-.005-.576.124-.81.74-.892 2.512-.336 4.906.032 7.292 1.03-.16.48-.312.937-.468 1.437"/><path fill="#ffcd54" d="M29.355 20.927c-.597-1.712-1.154-3.397-1.725-5.076-.368-1.082-.756-2.157-1.157-3.277-.174-.505-.325-.97-.521-1.569.964-.28 1.89-.596 2.837-.816 1.558-.36 3.134-.358 4.714-.11.347.055.5.163.499.535-.013 3.725-.01 7.45-.014 11.174 0 .04-.02.078-.059.231h-1.353c-.7 0-1.403-.038-2.099.012-.546.04-.86-.114-.94-.673-.019-.138-.098-.268-.182-.431"/><path fill="#fddabf" d="M20.902 17.619c.217.102.433.22.601.386 1.135 1.114 2.25 2.249 3.395 3.353.255.246.6.397.931.625.2.23.37.428.545.62.732.805.615 1.728-.34 2.368-.067-.077-.13-.175-.112-.254.132-.575-.081-1.039-.467-1.438-1.247-1.291-2.505-2.572-3.752-3.864-.31-.321-.644-.64-.869-1.017-.105-.176.023-.49.068-.78m2.648 9.187c.247-.788-.006-1.413-.6-1.975-.791-.747-1.553-1.525-2.315-2.3-.265-.27-.548-.607-.097-.915.172-.118.599-.14.72-.019 1.042 1.042 2.04 2.126 3.086 3.222.303 1.064.097 1.58-.794 1.987m-2.358 1.602c.095-.877-.214-1.563-.887-2.157-.688-.608-1.311-1.288-1.963-1.937-.087-.087-.232-.167-.246-.264-.038-.278-.13-.63-.004-.83.197-.312.54-.2.79.04.426.412.857.82 1.26 1.255.607.656 1.192 1.333 1.82 2.02.145.783.095 1.482-.77 1.873m-2.83.991c.209-1.07-.694-1.553-1.223-2.198-.518-.632-1.151-1.17-1.731-1.751-.259-.259-.424-.61-.076-.83.202-.13.7-.102.862.059 1.007.99 1.956 2.037 2.969 3.117.065.091.098.114.142.121 0 0-.001-.005-.004-.005 0 .673-.126 1.269-.939 1.487"/><path fill="#f6f6f6" d="M19.292 27.889q-.047.03-.095-.07.041-.022.095.07"/></svg>