<svg xmlns="http://www.w3.org/2000/svg" width="178" height="36" fill="none" viewBox="0 0 178 36"><path fill="#3c82f6" fill-rule="evenodd" d="M165.128 13.442c.518-1.898 3.416-2.286 4.8-2.243h3.385c1.115-.028 2.95-.333 3.399-1.423l.829-3.45c-.375.208-2.167.62-6.351.64h-.283l-1.865.005c-2.322.17-3.379 2.89-3.617 4.228z" clip-rule="evenodd"/><path fill="#3c82f6" d="m168.15 23.193 1.778-11.994c-1.384-.043-4.282.345-4.8 2.243l-1.195 9.224z"/><path fill="#fff" d="m168.233 24.933 1.92-13.777c-1.424-.042-4.404.337-4.937 2.191l-1.614 11.586zm-7.6-13.777.615-4.145 5.221.015c-1.535.492-2.381 2.953-2.665 4.13zm-2.054 0 .758-4.145-4.998 4.145zm-4.376.554 4.189-.062-.003.021-1.859 11.376-4.525 2.118 2.188-13.393.006-.04zM26.427 3.803c1.468 1.47 1.698 3.205 1.373 4.69-.307 1.403-1.102 2.596-1.756 3.304l-3.81 4.735-2.06-1.658 3.87-4.809.036-.037c.427-.454.952-1.254 1.138-2.101.163-.748.07-1.504-.632-2.225l-.07-.07c-.558-.541-1.053-.763-1.467-.837-.42-.076-.862-.02-1.337.167-.995.389-1.961 1.277-2.694 2.148l-.125.15c-1.216 1.474-4.835 6.175-7.199 9.264l-.955 1.251-.003.004-.003.004-1.764 2.275c-.256.352-.662 1.134-.741 1.933-.07.706.1 1.367.94 1.901.872.555 1.751.527 2.713.074.986-.465 1.972-1.35 2.814-2.374l.082-.1 2.395-2.972 2.06 1.658-2.398 2.975-.094.114c-.974 1.185-2.255 2.395-3.732 3.09-1.58.745-3.452.916-5.26-.235-1.84-1.171-2.3-2.897-2.151-4.392.138-1.397.792-2.626 1.247-3.244l.01-.014.01-.014 1.773-2.286.95-1.243c2.357-3.081 6.018-7.838 7.278-9.365l.13-.156c.83-.987 2.143-2.278 3.754-2.908.828-.324 1.77-.487 2.769-.307 1.004.18 1.96.69 2.838 1.54z"/><path fill="#fff" d="M26.546 3.684c1.516 1.517 1.753 3.314 1.419 4.844-.316 1.44-1.127 2.657-1.795 3.381l-3.91 4.86-2.322-1.87 3.98-4.944.004-.005.036-.037c.412-.438.918-1.212 1.095-2.022.078-.356.093-.705.01-1.047-.083-.34-.265-.684-.597-1.025l-.067-.067c-.538-.52-1.004-.724-1.38-.792-.383-.069-.794-.019-1.246.158-.956.374-1.9 1.236-2.626 2.1l-.124.15c-1.214 1.47-4.83 6.168-7.195 9.258l-.955 1.25-.003.004-.001.002-.003.004-1.761 2.271-.098.145c-.239.379-.546 1.04-.612 1.705-.033.335-.008.646.116.932.123.284.35.559.747.811.412.262.82.384 1.235.389.417.005.852-.107 1.316-.325.955-.45 1.922-1.315 2.756-2.329l.08-.099c.893-1.105 1.74-2.155 2.396-2.971l.105-.131 2.322 1.869-.105.13-2.399 2.976-.094.115c-.983 1.195-2.283 2.425-3.79 3.136-1.62.762-3.554.943-5.422-.246-1.904-1.212-2.382-3.005-2.229-4.55.142-1.435.812-2.692 1.279-3.328l.01-.014.003-.003 1.783-2.3.949-1.242c2.356-3.08 6.02-7.84 7.282-9.37l.13-.156h.001c.837-.995 2.172-2.312 3.822-2.958.85-.333 1.825-.502 2.86-.316 1.042.188 2.027.716 2.925 1.585l.001.001.07.07zm1.09 4.772c.315-1.439.093-3.112-1.328-4.534l-.07-.069c-.857-.83-1.783-1.32-2.75-1.495-.961-.173-1.872-.017-2.677.298-1.572.615-2.863 1.88-3.687 2.86l-.13.156c-1.258 1.524-4.916 6.277-7.274 9.359l-.95 1.243-1.773 2.287-.008.01-.01.014c-.441.601-1.08 1.802-1.215 3.162-.143 1.445.298 3.103 2.075 4.233 1.748 1.113 3.556.95 5.097.225 1.445-.68 2.707-1.87 3.674-3.044l.093-.114c.846-1.048 1.65-2.047 2.292-2.844l-1.797-1.447-2.29 2.842h-.001l-.081.1c-.851 1.034-1.856 1.941-2.873 2.42-.497.234-.983.363-1.465.357a2.65 2.65 0 0 1-1.41-.441c-.444-.282-.721-.605-.876-.961-.154-.355-.179-.728-.142-1.099.083-.836.504-1.646.773-2.015l.003-.004 1.763-2.275.003-.004.002-.002.001-.001.956-1.25v-.001c2.362-3.088 5.983-7.792 7.202-9.269l.126-.15v-.001c.74-.879 1.728-1.793 2.762-2.197.497-.195.971-.258 1.428-.176.45.081.976.321 1.555.882l.001.002.07.07.002.001c.37.38.585.776.683 1.18s.078.807-.008 1.199c-.193.884-.737 1.71-1.18 2.18l-.031.034-3.76 4.671 1.797 1.447 3.705-4.603.004-.005.004-.004c.64-.693 1.416-1.86 1.715-3.227"/><path fill="#fff" d="M4.65 11.235C5.912 9.59 7.483 9 8.962 9.082c1.373.075 2.533.716 3.214 1.283l.264.2-1.672 2.029-.29-.219-.025-.022c-.385-.326-1.052-.678-1.737-.716-.56-.03-1.252.134-1.965 1.043l-.069.09c-1.009 1.353-.925 2.256-.676 2.859.277.673.864 1.205 1.349 1.553l.095.068.009.005.008.006 6.389 4.562 7.444 4.689c.614.296 1.922.492 2.895-.617l.063-.073c.623-.747.64-1.367.519-1.849a2.6 2.6 0 0 0-.677-1.161l-.036-.033c-.487-.417-6.443-4.936-9.413-7.182l1.648-2.047c2.907 2.198 8.967 6.794 9.53 7.276l.045.04a5 5 0 0 1 1.443 2.402c.312 1.231.132 2.73-1.105 4.18l-.06.07c-2.165 2.469-5.052 1.828-6.177 1.25l-.049-.026-.045-.029-7.53-4.741-.03-.02-6.447-4.603c-.626-.433-1.736-1.32-2.299-2.686-.616-1.493-.487-3.335 1.015-5.35z"/><path fill="#fff" d="M4.517 11.132C5.812 9.444 7.435 8.83 8.97 8.914c1.414.077 2.605.734 3.306 1.317l.405.306-1.887 2.288-.418-.316-.004-.003-.003-.003-.026-.022c-.364-.309-.998-.642-1.637-.676a1.8 1.8 0 0 0-.846.154c-.303.137-.634.387-.977.824l-.068.087h.001c-.493.66-.71 1.2-.778 1.637-.069.434.008.78.122 1.057.26.63.814 1.138 1.29 1.48l.094.066.008.006.004.002.008.006 6.388 4.562 7.425 4.676c.575.275 1.788.451 2.69-.579l.061-.07c.297-.356.443-.674.503-.951.06-.278.038-.527-.018-.748a2.43 2.43 0 0 0-.627-1.078l-.036-.032c-.507-.432-6.435-4.93-9.402-7.174l-.138-.105 1.86-2.309.13.099c2.72 2.058 8.223 6.23 9.368 7.145l.169.138h.001l.046.04v.001a5.16 5.16 0 0 1 1.495 2.487c.325 1.283.133 2.838-1.14 4.331v.001l-.06.07h-.001c-2.237 2.55-5.22 1.886-6.381 1.288l-.049-.024-.006-.004-.007-.004-.045-.029-7.529-4.742-.03-.018-.008-.006-6.446-4.603c-.634-.438-1.776-1.348-2.358-2.759-.642-1.556-.497-3.46 1.035-5.514l.001-.001.06-.08m4.436-1.883c-1.423-.077-2.94.486-4.17 2.088l-.059.078c-1.47 1.973-1.584 3.753-.994 5.184.545 1.32 1.622 2.183 2.24 2.61l.002.002 6.444 4.602.025.016 7.53 4.742.037.024.044.022c1.09.561 3.88 1.177 5.974-1.21l.06-.07c1.199-1.407 1.367-2.848 1.067-4.028a4.8 4.8 0 0 0-1.39-2.317l-.044-.039c-.55-.47-6.435-4.934-9.392-7.171l-1.437 1.785c2.818 2.131 8.074 6.12 9.129 6.959l.154.125.004.003.036.032.002.003c.208.195.576.658.725 1.242.066.26.095.563.02.902-.073.34-.247.705-.573 1.096l-.002.002-.062.072-.001.002c-1.04 1.186-2.44.974-3.095.658l-.008-.004-.009-.005-7.444-4.689-.004-.003-.004-.002-6.388-4.562-.006-.004-.009-.006-.002-.001-.095-.068h-.001c-.494-.355-1.111-.91-1.407-1.627a2.25 2.25 0 0 1-.144-1.238c.08-.504.325-1.093.841-1.785l.002-.002.069-.09v-.002c.37-.471.743-.759 1.104-.923s.702-.2 1.003-.183c.684.037 1.344.367 1.757.69l.08.065.018.017.16.12 1.459-1.768-.124-.094-.003-.002-.004-.003c-.66-.55-1.787-1.172-3.115-1.245m131.161 15.369-3.633-5.677h-.807l-.782 5.677h-4.567l2.498-17.863h7.14c3.684 0 6.307 1.968 5.803 6.157-.454 3.305-1.867 4.415-4.314 5.575l4.289 6.131zm-3.885-9.562h2.649c1.388 0 2.195-1.034 2.321-2.069.126-1.085-.403-2.018-1.741-2.018h-2.649zM121.95 11.02l-.379 2.648h7.241l-.555 4.012h-7.241l-.378 2.674h7.871l-.58 4.264h-12.438l2.498-17.863h12.438l-.606 4.264zM98.44 24.618l2.499-17.863h4.289l3.254 7.62 1.01 3.582.101-.025-.051-3.078 1.135-8.099h4.491l-2.497 17.863h-4.567l-3.053-7.039-1.06-3.583-.1.026.05 3.456-.984 7.14zm.156-13.75h-4.82l-1.891 13.75h-4.567l1.892-13.75h-4.819l.606-4.138H99.2zM77.53 24.618l-3.633-5.677h-.807l-.782 5.677H67.74l2.5-17.863h7.14c3.684 0 6.308 1.968 5.803 6.157-.454 3.305-1.867 4.415-4.314 5.575l4.289 6.131zm-3.885-9.562h2.65c1.387 0 2.194-1.034 2.32-2.069.127-1.085-.403-2.018-1.74-2.018h-2.65zM62.683 6.755l3.886 17.863h-4.845l-.68-3.582h-4.77l-1.589 3.582h-4.844l8.73-17.863zm-4.819 10.269h2.675l-.53-5.223h-.177zM37.14 24.618l2.498-17.863h7.14c4.365 0 6.005 3.204 5.652 6.434-.379 3.38-2.877 6.206-7.19 6.206h-2.852l-.732 5.223zm5.803-9.234h2.624c1.413.025 2.22-1.11 2.372-2.322.151-1.185-.43-2.094-1.741-2.094h-2.624z"/></svg>