<svg xmlns="http://www.w3.org/2000/svg" width="169" height="34" fill="none" viewBox="0 0 169 34"><path fill="#3c82f6" fill-rule="evenodd" d="M156.634 12.75c.491-1.8 3.24-2.168 4.553-2.127h3.211c1.058-.027 2.798-.316 3.224-1.35L168.408 6c-.356.197-2.055.589-6.024.607h-.268l-1.77.005c-2.202.162-3.205 2.741-3.43 4.01z" clip-rule="evenodd"/><path fill="#3c82f6" d="m159.5 22 1.687-11.377c-1.313-.041-4.062.327-4.553 2.127L155.5 21.5z"/><path fill="#000" d="m159.58 23.65 1.82-13.068c-1.35-.04-4.177.32-4.683 2.078l-1.531 10.99zm-7.209-13.068.582-3.932 4.953.014c-1.457.467-2.259 2.802-2.528 3.918zm-1.949 0 .719-3.932-4.741 3.932zm-4.151.525 3.973-.058-.003.02-1.763 10.79-4.293 2.01 2.076-12.705.006-.037zM25.068 3.608c1.392 1.394 1.61 3.04 1.302 4.447-.291 1.332-1.045 2.464-1.665 3.135l-3.615 4.491-1.953-1.572 3.671-4.562.033-.035c.406-.43.904-1.19 1.08-1.993.155-.71.067-1.427-.6-2.11l-.066-.067c-.53-.513-.999-.723-1.391-.794-.399-.072-.819-.018-1.269.158-.944.37-1.86 1.212-2.555 2.038l-.119.143c-1.154 1.398-4.587 5.857-6.828 8.787l-.907 1.187-.002.003-.003.004-1.674 2.159c-.243.333-.628 1.075-.703 1.833-.066.67.096 1.296.892 1.803.827.526 1.661.5 2.574.07.935-.44 1.87-1.281 2.67-2.252l.076-.094c.847-1.049 1.65-2.045 2.273-2.82l1.953 1.573-2.274 2.822-.089.108c-.924 1.124-2.14 2.272-3.54 2.932-1.5.706-3.274.868-4.99-.223-1.745-1.111-2.18-2.748-2.04-4.166.131-1.326.752-2.491 1.183-3.078l.01-.013.01-.013 1.68-2.17.901-1.178c2.236-2.923 5.71-7.435 6.904-8.883l.124-.148c.787-.936 2.033-2.161 3.56-2.759.787-.307 1.68-.462 2.627-.29.953.17 1.86.654 2.692 1.46z"/><path fill="#000" d="M25.18 3.495c1.438 1.439 1.664 3.143 1.346 4.595-.299 1.365-1.069 2.52-1.702 3.206l-3.71 4.61-2.202-1.773 3.776-4.69.004-.005.033-.035c.391-.416.871-1.15 1.04-1.918.073-.338.088-.669.009-.993s-.252-.649-.567-.972v-.001l-.063-.062c-.51-.495-.952-.688-1.309-.752-.363-.065-.753-.018-1.182.15-.906.355-1.802 1.172-2.49 1.991l-.119.142c-1.151 1.395-4.582 5.852-6.824 8.783l-.906 1.186-.003.003-.001.002-.003.004-1.67 2.154-.093.137c-.227.36-.518.987-.581 1.618-.031.318-.007.613.11.884.117.27.333.53.709.77.39.248.777.363 1.17.368q.592.006 1.25-.308c.905-.427 1.822-1.248 2.614-2.209l.077-.094 2.272-2.818.1-.125 2.201 1.773-.1.124-2.274 2.822-.09.11c-.932 1.133-2.165 2.3-3.595 2.974-1.536.723-3.371.895-5.143-.233-1.806-1.15-2.259-2.85-2.114-4.316.135-1.36.77-2.553 1.213-3.157l.01-.013.002-.003 1.691-2.182.9-1.178c2.236-2.921 5.71-7.437 6.908-8.887v-.001l.124-.148c.794-.944 2.06-2.193 3.626-2.805.807-.316 1.73-.477 2.713-.3.988.178 1.923.679 2.774 1.504h.001l.068.067m1.035 4.526c.298-1.365.087-2.952-1.26-4.3l-.067-.066c-.813-.787-1.691-1.253-2.608-1.418-.912-.164-1.776-.016-2.54.283-1.49.583-2.715 1.783-3.497 2.712l-.123.148c-1.193 1.446-4.663 5.954-6.9 8.878l-.9 1.179h-.001l-1.682 2.17-.007.009-.01.013c-.419.57-1.025 1.71-1.152 3-.136 1.37.282 2.942 1.967 4.015 1.659 1.055 3.374.902 4.835.213 1.371-.645 2.569-1.773 3.486-2.888l.088-.108 2.174-2.697-1.705-1.372-2.172 2.695h-.001l-.077.095c-.807.98-1.76 1.841-2.725 2.296-.471.222-.933.344-1.39.338a2.5 2.5 0 0 1-1.338-.418c-.42-.268-.683-.574-.83-.912-.146-.337-.17-.69-.135-1.042.079-.793.479-1.561.733-1.911l.003-.004 1.673-2.158.003-.004.002-.002v-.001l.907-1.187c2.24-2.929 5.676-7.39 6.832-8.791v-.001l.12-.143c.7-.834 1.638-1.7 2.62-2.084.47-.185.92-.245 1.354-.167.428.077.925.305 1.474.837l.002.001.066.067h.002c.35.361.555.736.648 1.12.093.383.074.766-.007 1.137-.184.84-.7 1.623-1.12 2.069l-.03.031-3.566 4.431 1.705 1.373 3.514-4.366.004-.005.004-.004c.606-.657 1.343-1.764 1.627-3.06"/><path fill="#000" d="M4.41 10.657c1.198-1.56 2.688-2.119 4.09-2.042 1.304.071 2.404.68 3.05 1.217l.25.19-1.586 1.924-.274-.207-.025-.022c-.365-.309-.998-.643-1.647-.679-.53-.029-1.188.127-1.864.99l-.065.085c-.958 1.284-.878 2.14-.642 2.712.263.638.82 1.143 1.28 1.473l.09.064.008.006.008.005 6.06 4.327 7.062 4.448c.582.28 1.823.467 2.746-.585l.059-.07c.59-.708.608-1.296.492-1.753a2.46 2.46 0 0 0-.642-1.102l-.034-.03c-.462-.397-6.112-4.683-8.929-6.814l1.564-1.942c2.757 2.086 8.505 6.445 9.039 6.902l.043.038a4.73 4.73 0 0 1 1.368 2.279c.297 1.168.126 2.59-1.047 3.965l-.057.066c-2.053 2.342-4.792 1.735-5.86 1.185l-.046-.023-.043-.028-7.142-4.498-.028-.018-6.117-4.367c-.593-.41-1.646-1.251-2.18-2.547-.584-1.417-.462-3.164.963-5.074z"/><path fill="#000" d="M4.284 10.56C5.513 8.958 7.053 8.376 8.51 8.456c1.342.073 2.471.696 3.137 1.249l.383.29-1.79 2.17-.395-.3-.004-.002-.004-.003-.024-.02c-.345-.293-.947-.61-1.553-.643a1.7 1.7 0 0 0-.802.147c-.288.13-.602.367-.927.782l-.064.082c-.467.627-.673 1.138-.738 1.553-.065.412.008.74.116 1.003.246.597.773 1.08 1.224 1.404l.089.062.008.006.003.002.008.005 6.06 4.327 7.042 4.436c.546.261 1.696.428 2.553-.549l.057-.067c.281-.337.42-.638.477-.902.057-.263.036-.5-.017-.71a2.3 2.3 0 0 0-.595-1.021l-.034-.031c-.481-.41-6.104-4.676-8.918-6.804l-.131-.1 1.764-2.19.123.093c2.581 1.953 7.8 5.91 8.887 6.778l.16.13v.002l.044.037a4.9 4.9 0 0 1 1.418 2.36c.309 1.216.127 2.691-1.08 4.108h-.002l-.056.066v.001c-2.122 2.42-4.952 1.79-6.054 1.222l-.046-.023-.006-.004-.006-.004-.043-.027-7.142-4.498-.029-.018-.007-.005-6.114-4.366c-.601-.416-1.685-1.279-2.237-2.617-.609-1.476-.471-3.282.982-5.23v-.001zm4.208-1.786c-1.349-.074-2.789.46-3.955 1.98l-.056.074c-1.395 1.872-1.502 3.56-.942 4.917.516 1.252 1.538 2.072 2.123 2.477l.002.001 6.113 4.365.024.015 7.142 4.498.036.023.041.021c1.034.532 3.682 1.116 5.667-1.148l.056-.065c1.138-1.335 1.297-2.703 1.014-3.822a4.57 4.57 0 0 0-1.319-2.198l-.042-.036c-.521-.447-6.104-4.681-8.909-6.803l-1.363 1.693c2.673 2.022 7.66 5.805 8.66 6.601l.146.12.003.002.034.03.003.003c.196.185.546.625.687 1.179.062.247.09.533.02.855s-.236.669-.545 1.04v.001l-.06.069-.001.002c-.987 1.125-2.315.923-2.936.624l-.008-.004-.008-.005-7.061-4.448-.004-.002-.004-.003-6.06-4.327-.005-.004-.008-.005-.002-.001-.09-.064-.002-.001c-.468-.336-1.053-.863-1.334-1.543a2.13 2.13 0 0 1-.136-1.174c.075-.478.308-1.037.797-1.694l.002-.001.065-.086.001-.001c.351-.448.704-.72 1.047-.876.343-.155.666-.19.951-.174.65.036 1.275.348 1.667.656l.075.06v.001l.018.015.152.115 1.383-1.678-.118-.089-.002-.002-.004-.002c-.626-.522-1.695-1.112-2.955-1.181m124.413 14.578-3.446-5.385h-.766l-.742 5.385h-4.332l2.37-16.944h6.772c3.495 0 5.983 1.866 5.505 5.84-.431 3.134-1.771 4.187-4.093 5.288l4.069 5.816zm-3.686-9.07h2.513c1.317 0 2.082-.982 2.202-1.963.12-1.03-.383-1.915-1.651-1.915h-2.513zm-13.542-3.83-.359 2.513h6.868l-.526 3.805h-6.869l-.359 2.537h7.467l-.551 4.045H109.55l2.369-16.944h11.799l-.575 4.044zm-22.3 12.9 2.37-16.944h4.068l3.087 7.227.957 3.399.096-.024-.048-2.92 1.077-7.682h4.26l-2.369 16.944h-4.332l-2.896-6.678-1.005-3.398-.096.024.048 3.279-.933 6.773zm.147-13.043h-4.571l-1.795 13.043h-4.332l1.795-13.043h-4.57l.573-3.925h13.474zM73.542 23.352l-3.446-5.385h-.766l-.742 5.385h-4.331l2.369-16.944h6.773c3.494 0 5.983 1.866 5.504 5.84-.43 3.134-1.77 4.187-4.092 5.288l4.068 5.816zm-3.685-9.07h2.513c1.316 0 2.082-.982 2.201-1.963.12-1.03-.382-1.915-1.65-1.915h-2.514zM59.459 6.408l3.685 16.944H58.55l-.646-3.399H53.38l-1.508 3.399h-4.595l8.28-16.944zm-4.571 9.74h2.537l-.503-4.954h-.168zM35.23 23.352 37.6 6.408h6.772c4.14 0 5.696 3.039 5.36 6.102-.358 3.207-2.728 5.888-6.82 5.888h-2.704l-.694 4.954zm5.504-8.76h2.49c1.34.024 2.105-1.053 2.249-2.201.143-1.125-.407-1.987-1.652-1.987h-2.488z"/></svg>